<?xml version="1.0" standalone="no"?>
<!DOCTYPE svg PUBLIC "-//W3C//DTD SVG 20010904//EN"
 "http://www.w3.org/TR/2001/REC-SVG-20010904/DTD/svg10.dtd">
<svg version="1.0" xmlns="http://www.w3.org/2000/svg"
 width="386.000000pt" height="386.000000pt" viewBox="0 0 386.000000 386.000000"
 preserveAspectRatio="xMidYMid meet">
<metadata>
Created by potrace 1.11, written by Peter Selinger 2001-2013
</metadata>
<g transform="translate(0.000000,386.000000) scale(0.100000,-0.100000)"
fill="#000000" stroke="none">
<path d="M101 3847 c-18 -22 -5 -72 27 -103 29 -29 29 -31 25 -119 -7 -115
-21 -159 -56 -163 -28 -4 -32 -14 -42 -113 -5 -47 -3 -74 6 -90 7 -14 14 -63
15 -111 1 -49 6 -94 11 -100 11 -13 38 -168 35 -202 -1 -23 -19 -36 -49 -36
-25 0 -46 -31 -41 -62 4 -27 29 -37 26 -11 -3 40 2 53 23 53 11 0 29 5 40 10
17 10 18 19 14 96 -3 46 -9 93 -15 103 -16 30 -25 131 -11 131 6 0 11 -5 11
-12 0 -6 2 -9 5 -6 3 3 8 54 11 114 3 63 12 121 20 137 8 15 22 42 31 60 19
35 18 32 32 157 10 91 1 137 -18 88 -16 -42 -31 -33 -31 18 0 51 -14 84 -35
84 -31 0 -24 57 8 62 11 2 22 9 25 16 5 17 -52 16 -67 -1z m84 -270 c-11 -96
-24 -136 -47 -148 -24 -13 -39 -2 -18 14 33 26 45 67 49 165 1 13 5 20 11 17
6 -4 8 -25 5 -48z m-25 -173 c0 -2 -9 -18 -20 -36 -15 -25 -20 -51 -20 -105 0
-40 -4 -73 -8 -73 -19 0 -36 55 -36 118 -1 89 4 100 48 100 20 0 36 -2 36 -4z"/>
<path d="M242 3848 c-6 -6 -8 -18 -3 -27 9 -19 -13 -69 -23 -52 -11 17 -26 13
-20 -4 4 -8 16 -15 29 -15 38 0 50 -24 38 -81 -6 -31 -6 -52 0 -56 12 -7 0
-204 -13 -217 -6 -6 -10 -22 -10 -37 0 -15 -7 -34 -15 -43 -11 -10 -15 -36
-15 -89 0 -63 -3 -77 -20 -88 -11 -8 -23 -29 -26 -46 -6 -28 -4 -33 12 -33 11
0 25 -9 32 -20 7 -11 19 -20 27 -20 33 0 12 -96 -35 -157 -13 -17 -20 -19 -29
-10 -8 8 -11 8 -11 -1 0 -6 9 -16 20 -22 23 -12 27 -35 5 -26 -9 3 -15 0 -15
-9 0 -8 7 -15 15 -15 14 0 17 -5 19 -40 1 -13 36 -15 256 -14 175 0 261 4 275
12 14 8 16 11 5 12 -13 0 -15 66 -18 525 -1 289 -5 539 -9 555 -5 25 -10 30
-35 30 -23 0 -29 -4 -24 -15 11 -29 9 -719 -2 -723 -27 -9 -32 44 -30 354 0
176 -2 334 -6 352 l-8 32 -177 0 c-120 0 -181 -4 -189 -12z m461 -774 c7 -43
0 -65 -19 -57 -21 8 -16 93 6 93 4 0 10 -16 13 -36z m-13 -163 c0 -5 -18 -11
-41 -13 -39 -4 -55 2 -42 16 10 9 83 7 83 -3z m-50 -111 c0 -5 -4 -10 -10 -10
-5 0 -10 5 -10 10 0 6 5 10 10 10 6 0 10 -4 10 -10z m53 -4 c6 -16 -2 -28 -14
-20 -12 7 -11 34 0 34 5 0 11 -6 14 -14z"/>
<path d="M813 3841 c3 -11 -2 -29 -10 -40 -11 -17 -12 -28 -2 -60 15 -50 36
-60 50 -23 8 20 8 35 -1 57 -7 17 -12 42 -12 58 1 18 -4 27 -15 27 -10 0 -14
-6 -10 -19z"/>
<path d="M878 3855 c-9 -15 -5 -86 5 -76 4 4 7 26 5 47 -2 22 -6 34 -10 29z"/>
<path d="M1225 3850 c4 -6 11 -8 16 -5 14 9 11 15 -7 15 -8 0 -12 -5 -9 -10z"/>
<path d="M1571 3698 c2 -160 -6 -243 -21 -233 -10 6 -22 -24 -14 -36 3 -6 11
-5 20 2 11 9 14 6 15 -17 4 -100 6 -124 12 -131 8 -8 10 22 9 192 -1 72 -1
187 -2 258 0 81 -4 127 -10 127 -7 0 -10 -55 -9 -162z"/>
<path d="M1648 3847 c-3 -6 -4 -39 -2 -72 1 -33 2 -108 3 -167 1 -60 5 -108
10 -108 12 0 14 347 2 354 -5 3 -11 0 -13 -7z"/>
<path d="M1728 3848 c-3 -12 -3 -262 1 -345 0 -18 5 -33 10 -33 5 0 9 84 8
195 -1 173 -6 223 -19 183z"/>
<path d="M1872 3707 c-7 -84 -9 -174 -6 -200 5 -37 3 -52 -10 -66 -9 -10 -22
-52 -28 -95 l-13 -77 -83 2 c-90 2 -102 -4 -94 -47 4 -20 11 -24 41 -25 20 -1
41 0 46 2 6 1 26 3 45 3 34 1 35 0 34 -39 0 -22 -6 -102 -14 -178 -11 -109
-11 -140 -2 -146 7 -4 10 -15 6 -24 -3 -10 -1 -17 6 -17 6 0 8 5 5 11 -4 6 0
9 11 7 15 -2 19 4 21 32 5 79 24 297 29 326 4 28 7 30 36 26 26 -4 30 -2 25
12 -4 10 -7 26 -7 37 0 13 -7 19 -24 19 l-23 0 14 73 c12 68 31 228 51 430 l8
87 -31 0 -31 0 -12 -153z"/>
<path d="M1980 3853 c-1 -44 -43 -432 -51 -476 -10 -49 -10 -60 2 -68 26 -15
34 11 35 114 1 56 6 113 11 127 5 14 11 59 12 100 3 105 10 190 16 201 4 5 -1
9 -9 9 -9 0 -16 -3 -16 -7z"/>
<path d="M2071 3828 c-17 -43 -27 -283 -12 -293 16 -9 14 -60 -3 -74 -16 -13
-36 -86 -36 -130 0 -28 3 -31 33 -31 17 0 38 4 45 8 14 10 20 80 23 281 2 155
13 229 35 238 8 3 14 11 14 19 0 10 -13 14 -43 14 -39 0 -44 -3 -56 -32z"/>
<path d="M2390 3848 c0 -17 -19 -190 -36 -328 -29 -240 -28 -220 -7 -220 17 0
19 7 17 60 0 33 2 82 7 109 4 28 10 78 14 113 3 35 8 74 10 88 2 14 7 52 10
85 3 33 9 70 12 83 4 16 1 22 -11 22 -9 0 -16 -6 -16 -12z"/>
<path d="M3287 3835 c-34 -35 -176 -115 -203 -115 -40 0 -118 -53 -204 -138
-47 -46 -101 -92 -120 -102 -19 -10 -46 -29 -60 -43 -14 -13 -44 -36 -67 -50
-34 -22 -42 -33 -48 -67 -10 -59 -38 -75 -118 -65 -77 9 -396 16 -419 9 -10
-3 -18 -13 -18 -23 0 -9 -6 -23 -12 -30 -11 -10 -10 -12 2 -11 8 1 85 2 171 1
154 -1 156 -1 167 -25 7 -15 22 -26 45 -30 19 -4 50 -20 68 -37 78 -69 81 -71
122 -49 20 11 44 20 52 20 8 0 31 8 51 17 34 17 36 17 50 -1 7 -10 11 -23 8
-27 -9 -15 48 -131 59 -120 7 7 1 28 -16 63 -38 79 -40 96 -11 115 14 9 54 27
90 40 35 12 94 35 132 49 94 36 140 49 148 42 3 -4 -15 -36 -40 -71 -25 -36
-46 -68 -46 -72 0 -4 -16 -29 -35 -55 -34 -47 -46 -78 -24 -64 13 7 159 230
159 242 0 33 101 85 130 67 6 -3 10 1 10 9 0 9 9 16 20 16 11 0 20 5 20 10 0
6 8 10 18 10 9 0 37 10 62 21 25 12 59 25 75 29 76 20 114 41 115 63 0 14 -54
7 -94 -12 -23 -11 -66 -28 -96 -39 -52 -19 -72 -26 -165 -59 -22 -8 -65 -26
-95 -40 -30 -14 -80 -34 -110 -44 -30 -9 -84 -29 -120 -42 -36 -14 -94 -36
-130 -49 -36 -14 -72 -23 -80 -20 -36 11 -136 57 -142 66 -3 5 0 27 8 49 8 22
14 47 14 56 0 9 23 32 51 51 27 19 76 53 107 75 32 22 89 72 128 111 73 76
164 134 207 134 14 0 29 5 32 10 3 6 12 10 19 10 17 0 136 79 136 90 0 4 15
17 33 29 27 18 29 21 11 21 -12 0 -33 -11 -47 -25z m-747 -641 c0 -10 8 -12
29 -8 18 4 43 -2 71 -15 24 -12 50 -21 57 -21 22 0 14 -19 -14 -33 -46 -23
-93 -29 -99 -12 -4 8 -11 15 -16 15 -6 0 -32 16 -59 36 -36 26 -47 39 -40 48
14 16 71 8 71 -10z"/>
<path d="M3548 3810 c29 -28 56 -50 60 -50 14 0 80 -66 86 -87 7 -21 -23 -183
-44 -238 -16 -43 -140 -205 -184 -240 -20 -17 -53 -44 -74 -61 -20 -17 -52
-41 -71 -54 -18 -12 -51 -40 -72 -61 -36 -35 -46 -39 -106 -45 -37 -3 -74 -9
-82 -13 -18 -9 -92 -25 -104 -23 -4 1 -17 -3 -28 -9 -11 -6 -43 -17 -70 -24
-27 -8 -71 -20 -97 -27 -26 -8 -94 -15 -151 -16 -71 -2 -123 -9 -162 -22 -32
-11 -64 -20 -72 -20 -7 0 -29 -13 -47 -30 -18 -16 -37 -30 -42 -30 -14 0 -22
-2 -48 -12 -87 -35 -112 -36 -263 -12 -131 21 -148 22 -174 9 -15 -8 -35 -15
-44 -15 -23 0 -35 -18 -43 -62 -5 -28 -12 -38 -25 -38 -21 0 -31 -19 -31 -60
0 -34 -19 -50 -32 -26 -5 9 -13 14 -18 11 -4 -3 -11 3 -15 13 -7 14 -9 13 -14
-8 -7 -24 -10 -25 -96 -27 -148 -3 -165 -6 -165 -25 0 -9 -4 -19 -9 -23 -6 -3
-3 -18 7 -35 30 -52 81 -33 66 25 -3 13 0 26 6 30 10 6 118 10 178 6 9 -1 12
-31 12 -117 0 -78 3 -113 11 -109 6 4 9 47 8 112 -1 86 1 107 14 114 36 20 43
3 41 -104 -1 -104 2 -130 16 -122 4 2 6 52 4 110 -2 98 0 106 19 117 20 10 20
11 2 24 -23 17 -12 29 32 39 35 7 39 0 42 -69 2 -44 23 -91 48 -105 21 -12 25
-61 5 -80 -22 -22 -8 -77 32 -124 73 -88 122 -136 148 -142 43 -11 75 -83 87
-199 11 -92 33 -166 51 -166 4 0 13 -13 20 -30 15 -36 41 -42 33 -7 -3 12 -13
30 -22 40 -12 15 -13 20 -2 26 9 6 10 14 3 27 -9 17 -24 101 -36 201 -7 57
-56 133 -99 155 -40 20 -117 97 -147 146 -9 15 -23 65 -30 112 -7 47 -19 99
-26 115 -18 44 -22 187 -5 213 8 14 49 9 224 -24 l78 -15 102 31 c60 19 113
42 128 57 15 14 42 28 60 33 19 5 52 13 74 19 22 6 78 11 124 12 74 1 156 17
266 49 181 54 200 59 249 66 38 5 38 5 32 -23 -4 -15 -9 -55 -11 -88 -9 -107
-27 -230 -37 -250 -6 -11 -36 -54 -68 -95 -56 -74 -64 -91 -178 -385 -86 -221
-105 -320 -88 -455 12 -100 25 -214 32 -275 3 -33 12 -91 21 -130 23 -105 23
-132 5 -148 -30 -27 -347 -185 -383 -192 -28 -5 -54 1 -120 28 -115 46 -169
41 -194 -19 -11 -28 -19 -34 -44 -34 -28 0 -61 21 -61 40 0 9 -99 45 -105 39
-2 -2 -5 -15 -7 -29 -3 -22 3 -27 40 -38 47 -15 51 -26 22 -62 -22 -28 -25
-74 -10 -165 5 -33 12 -85 15 -115 7 -67 28 -115 67 -157 18 -18 32 -45 34
-65 2 -18 14 -93 26 -165 l22 -133 32 0 31 0 -18 105 c-21 124 -27 145 -40
145 -6 0 -8 21 -4 55 4 41 2 55 -7 55 -12 0 -59 62 -65 85 -15 58 -22 98 -27
140 -2 28 -8 78 -12 111 -6 55 -4 65 17 93 25 34 34 36 89 20 31 -10 42 -20
61 -60 17 -37 20 -52 11 -61 -8 -8 -16 -3 -29 21 -29 52 -41 66 -49 59 -8 -8
18 -61 48 -100 17 -21 19 -22 29 -5 5 9 16 17 23 17 15 0 63 -97 53 -107 -4
-3 -8 -4 -9 -2 -2 2 -10 17 -18 33 -8 16 -21 31 -28 34 -12 4 -12 0 -1 -19 14
-27 39 -160 32 -171 -2 -5 -16 -8 -31 -9 -15 0 -36 -4 -46 -8 -33 -13 5 -20
55 -11 108 20 465 35 475 19 6 -10 12 -153 13 -326 1 -98 3 -113 17 -113 15 0
16 22 13 223 -4 207 -3 222 14 219 11 -2 17 3 17 15 -1 12 -20 27 -58 46 -49
23 -130 80 -235 163 -15 12 -27 26 -27 31 0 5 24 20 53 34 49 24 211 110 342
183 33 19 61 41 63 50 2 9 20 25 40 35 20 11 48 31 62 46 14 15 42 36 63 46
21 11 41 27 44 35 3 8 25 26 49 40 25 14 50 34 57 43 6 10 30 30 52 45 54 35
124 89 155 118 14 13 38 31 55 42 16 10 43 32 58 48 26 28 32 30 70 23 151
-26 227 -32 227 -20 0 13 -37 21 -146 31 -38 3 -71 8 -73 10 -8 7 34 47 87 80
28 19 52 37 52 42 0 5 18 18 40 31 47 26 59 61 12 37 -15 -8 -44 -29 -64 -47
-20 -19 -56 -47 -78 -64 -23 -16 -56 -40 -73 -53 -18 -13 -40 -21 -52 -18 -11
3 -47 7 -80 11 -33 3 -71 8 -85 11 l-25 6 23 18 c12 10 22 20 22 23 0 2 25 30
55 62 58 60 115 136 115 153 0 6 3 12 8 14 26 11 75 108 87 172 8 39 16 85 20
101 3 17 10 54 15 83 9 53 17 72 59 146 43 75 103 293 72 261 -5 -6 -23 -55
-40 -111 -28 -90 -67 -179 -92 -210 -5 -7 -16 -47 -24 -90 -17 -98 -22 -126
-34 -190 -16 -82 -144 -264 -281 -399 -68 -67 -123 -115 -132 -115 -5 0 -27
-17 -51 -38 -23 -21 -58 -48 -79 -60 -20 -13 -38 -29 -41 -37 -4 -8 -21 -22
-39 -31 -28 -14 -98 -79 -98 -90 0 -14 29 2 69 36 97 84 173 144 249 196 28
20 52 41 52 45 0 5 12 15 28 22 35 18 212 2 212 -19 0 -7 -25 -29 -55 -49 -30
-19 -55 -38 -55 -43 0 -5 -17 -18 -38 -29 -20 -12 -48 -33 -61 -46 -12 -14
-43 -38 -67 -53 -24 -15 -44 -31 -44 -35 0 -4 -22 -21 -50 -39 -27 -18 -50
-36 -50 -40 0 -5 -17 -19 -37 -31 -38 -23 -104 -74 -150 -117 -13 -12 -28 -22
-33 -22 -6 0 -10 -4 -10 -9 0 -5 -14 -14 -31 -21 -17 -7 -37 -23 -45 -34 -7
-12 -31 -28 -51 -35 -21 -7 -99 -46 -174 -87 -75 -41 -142 -74 -150 -74 -16 1
-59 34 -59 47 0 9 -93 53 -99 47 -3 -2 6 -14 18 -26 l23 -21 -23 -18 c-13 -10
-26 -19 -29 -19 -3 0 -18 24 -33 54 -16 30 -35 57 -43 60 -8 3 -14 10 -14 16
0 19 59 10 154 -24 l95 -35 75 29 c42 16 130 59 195 95 66 36 124 65 129 65 4
0 24 15 44 33 33 31 35 36 33 87 -2 30 -10 90 -19 134 -8 43 -18 102 -21 130
-3 28 -10 87 -15 131 -6 44 -10 133 -10 198 0 112 2 126 41 240 88 266 161
429 219 487 25 25 68 113 80 160 6 25 15 101 20 170 6 68 14 128 18 132 5 5
34 3 66 -3 61 -11 133 -7 231 12 46 9 79 9 141 1 88 -13 154 -15 178 -6 10 4
16 18 16 39 0 33 -1 33 -29 22 -22 -8 -54 -7 -124 2 -94 13 -203 10 -249 -8
-27 -10 -163 -9 -174 2 -9 9 30 52 76 83 19 14 55 40 80 60 25 19 58 45 73 57
35 26 136 157 171 219 14 25 37 92 51 149 32 126 29 198 -10 223 -14 9 -38 28
-54 44 -47 43 -59 52 -71 52 -5 0 -10 5 -10 10 0 6 -21 10 -47 10 l-48 -1 53
-49z m-1078 -3157 c84 -71 154 -123 168 -123 4 0 18 -9 32 -20 17 -13 22 -22
15 -29 -6 -6 -83 -13 -173 -16 l-162 -5 0 35 c0 19 -16 68 -35 109 -19 41 -35
82 -35 90 0 9 17 24 38 35 42 22 29 28 152 -76z m-152 -151 c2 -40 0 -52 -11
-52 -22 0 -38 85 -20 104 16 16 28 -4 31 -52z"/>
<path d="M1120 3840 c0 -5 5 -10 10 -10 6 0 10 5 10 10 0 6 -4 10 -10 10 -5 0
-10 -4 -10 -10z"/>
<path d="M1190 3830 c0 -5 5 -10 10 -10 6 0 10 5 10 10 0 6 -4 10 -10 10 -5 0
-10 -4 -10 -10z"/>
<path d="M1265 3830 c-3 -5 -1 -10 4 -10 6 0 11 5 11 10 0 6 -2 10 -4 10 -3 0
-8 -4 -11 -10z"/>
<path d="M190 3821 c0 -5 5 -13 10 -16 6 -3 10 -2 10 4 0 5 -4 13 -10 16 -5 3
-10 2 -10 -4z"/>
<path d="M1082 3821 c2 -7 7 -12 11 -12 12 1 9 15 -3 20 -7 2 -11 -2 -8 -8z"/>
<path d="M1155 3810 c4 -6 11 -8 16 -5 14 9 11 15 -7 15 -8 0 -12 -5 -9 -10z"/>
<path d="M1230 3810 c0 -5 5 -10 10 -10 6 0 10 5 10 10 0 6 -4 10 -10 10 -5 0
-10 -4 -10 -10z"/>
<path d="M1300 3800 c0 -5 5 -10 10 -10 6 0 10 5 10 10 0 6 -4 10 -10 10 -5 0
-10 -4 -10 -10z"/>
<path d="M1120 3790 c0 -5 5 -10 10 -10 6 0 10 5 10 10 0 6 -4 10 -10 10 -5 0
-10 -4 -10 -10z"/>
<path d="M1195 3790 c-3 -5 -1 -10 4 -10 6 0 11 5 11 10 0 6 -2 10 -4 10 -3 0
-8 -4 -11 -10z"/>
<path d="M1090 3774 c0 -8 5 -12 10 -9 6 4 8 11 5 16 -9 14 -15 11 -15 -7z"/>
<path d="M1160 3770 c0 -5 5 -10 10 -10 6 0 10 5 10 10 0 6 -4 10 -10 10 -5 0
-10 -4 -10 -10z"/>
<path d="M1230 3760 c0 -5 5 -10 10 -10 6 0 10 5 10 10 0 6 -4 10 -10 10 -5 0
-10 -4 -10 -10z"/>
<path d="M1120 3750 c0 -5 5 -10 10 -10 6 0 10 5 10 10 0 6 -4 10 -10 10 -5 0
-10 -4 -10 -10z"/>
<path d="M1195 3740 c4 -6 11 -8 16 -5 14 9 11 15 -7 15 -8 0 -12 -5 -9 -10z"/>
<path d="M1435 3741 c-3 -5 2 -11 10 -15 8 -3 17 -1 20 3 3 5 -2 11 -10 15 -8
3 -17 1 -20 -3z"/>
<path d="M1090 3730 c0 -5 5 -10 10 -10 6 0 10 5 10 10 0 6 -4 10 -10 10 -5 0
-10 -4 -10 -10z"/>
<path d="M200 3721 c0 -5 5 -13 10 -16 6 -3 10 -2 10 4 0 5 -4 13 -10 16 -5 3
-10 2 -10 -4z"/>
<path d="M1160 3720 c0 -5 5 -10 10 -10 6 0 10 5 10 10 0 6 -4 10 -10 10 -5 0
-10 -4 -10 -10z"/>
<path d="M1230 3720 c0 -5 5 -10 10 -10 6 0 10 5 10 10 0 6 -4 10 -10 10 -5 0
-10 -4 -10 -10z"/>
<path d="M1126 3711 c-4 -5 -2 -12 3 -15 5 -4 12 -2 15 3 4 5 2 12 -3 15 -5 4
-12 2 -15 -3z"/>
<path d="M1414 3705 c-8 -19 21 -65 41 -65 8 0 15 -6 15 -12 0 -7 5 -5 11 5
15 25 2 55 -32 72 -26 14 -30 14 -35 0z"/>
<path d="M1200 3700 c0 -5 5 -10 10 -10 6 0 10 5 10 10 0 6 -4 10 -10 10 -5 0
-10 -4 -10 -10z"/>
<path d="M1270 3690 c0 -5 5 -10 10 -10 6 0 10 5 10 10 0 6 -4 10 -10 10 -5 0
-10 -4 -10 -10z"/>
<path d="M1340 3690 c0 -5 5 -10 10 -10 6 0 10 5 10 10 0 6 -4 10 -10 10 -5 0
-10 -4 -10 -10z"/>
<path d="M1090 3680 c0 -5 5 -10 10 -10 6 0 10 5 10 10 0 6 -4 10 -10 10 -5 0
-10 -4 -10 -10z"/>
<path d="M1160 3680 c0 -5 5 -10 10 -10 6 0 10 5 10 10 0 6 -4 10 -10 10 -5 0
-10 -4 -10 -10z"/>
<path d="M1235 3670 c3 -5 8 -10 11 -10 2 0 4 5 4 10 0 6 -5 10 -11 10 -5 0
-7 -4 -4 -10z"/>
<path d="M1306 3671 c-4 -5 -2 -12 3 -15 5 -4 12 -2 15 3 4 5 2 12 -3 15 -5 4
-12 2 -15 -3z"/>
<path d="M1381 3664 c0 -11 3 -14 6 -6 3 7 2 16 -1 19 -3 4 -6 -2 -5 -13z"/>
<path d="M1130 3660 c0 -5 5 -10 10 -10 6 0 10 5 10 10 0 6 -4 10 -10 10 -5 0
-10 -4 -10 -10z"/>
<path d="M1200 3650 c0 -5 5 -10 10 -10 6 0 10 5 10 10 0 6 -4 10 -10 10 -5 0
-10 -4 -10 -10z"/>
<path d="M1270 3650 c0 -5 5 -10 10 -10 6 0 10 5 10 10 0 6 -4 10 -10 10 -5 0
-10 -4 -10 -10z"/>
<path d="M1090 3640 c0 -5 5 -10 10 -10 6 0 10 5 10 10 0 6 -4 10 -10 10 -5 0
-10 -4 -10 -10z"/>
<path d="M1340 3640 c0 -5 4 -10 9 -10 6 0 13 5 16 10 3 6 -1 10 -9 10 -9 0
-16 -4 -16 -10z"/>
<path d="M1165 3630 c3 -5 8 -10 11 -10 2 0 4 5 4 10 0 6 -5 10 -11 10 -5 0
-7 -4 -4 -10z"/>
<path d="M1310 3620 c0 -5 5 -10 10 -10 6 0 10 5 10 10 0 6 -4 10 -10 10 -5 0
-10 -4 -10 -10z"/>
<path d="M872 3597 l-24 -25 46 -79 c25 -43 53 -87 63 -98 10 -12 19 -27 21
-35 7 -30 41 -100 49 -100 4 0 14 4 22 9 12 8 9 20 -21 68 -68 112 -118 210
-125 247 l-8 37 -23 -24z"/>
<path d="M1130 3610 c0 -5 5 -10 10 -10 6 0 10 5 10 10 0 6 -4 10 -10 10 -5 0
-10 -4 -10 -10z"/>
<path d="M1100 3594 c0 -8 5 -12 10 -9 6 4 8 11 5 16 -9 14 -15 11 -15 -7z"/>
<path d="M1310 3580 c0 -5 5 -10 10 -10 6 0 10 5 10 10 0 6 -4 10 -10 10 -5 0
-10 -4 -10 -10z"/>
<path d="M1130 3570 c0 -5 5 -10 10 -10 6 0 10 5 10 10 0 6 -4 10 -10 10 -5 0
-10 -4 -10 -10z"/>
<path d="M1100 3550 c0 -5 5 -10 10 -10 6 0 10 5 10 10 0 6 -4 10 -10 10 -5 0
-10 -4 -10 -10z"/>
<path d="M1170 3539 c0 -5 5 -7 10 -4 6 3 10 8 10 11 0 2 -4 4 -10 4 -5 0 -10
-5 -10 -11z"/>
<path d="M3790 3528 l-35 -23 32 -3 c38 -4 73 12 73 33 0 22 -30 18 -70 -7z"/>
<path d="M1135 3531 c-3 -5 -1 -12 5 -16 5 -3 10 1 10 9 0 18 -6 21 -15 7z"/>
<path d="M1100 3504 c0 -8 5 -12 10 -9 6 4 8 11 5 16 -9 14 -15 11 -15 -7z"/>
<path d="M1482 3508 c-15 -15 -16 -55 0 -64 8 -5 9 0 5 16 -3 13 -2 32 4 42
11 21 8 23 -9 6z"/>
<path d="M1170 3500 c0 -5 5 -10 10 -10 6 0 10 5 10 10 0 6 -4 10 -10 10 -5 0
-10 -4 -10 -10z"/>
<path d="M1135 3480 c-3 -5 1 -10 9 -10 9 0 16 5 16 10 0 6 -4 10 -9 10 -6 0
-13 -4 -16 -10z"/>
<path d="M1280 3470 c0 -5 5 -10 10 -10 6 0 10 5 10 10 0 6 -4 10 -10 10 -5 0
-10 -4 -10 -10z"/>
<path d="M1100 3460 c0 -5 5 -10 10 -10 6 0 10 5 10 10 0 6 -4 10 -10 10 -5 0
-10 -4 -10 -10z"/>
<path d="M1175 3461 c-3 -5 -1 -12 5 -16 5 -3 10 1 10 9 0 18 -6 21 -15 7z"/>
<path d="M1355 3460 c3 -5 8 -10 11 -10 2 0 4 5 4 10 0 6 -5 10 -11 10 -5 0
-7 -4 -4 -10z"/>
<path d="M1320 3446 c0 -9 5 -16 10 -16 6 0 10 4 10 9 0 6 -4 13 -10 16 -5 3
-10 -1 -10 -9z"/>
<path d="M1730 3400 l0 -60 -30 0 c-25 0 -30 4 -30 25 0 14 -4 25 -10 25 -5 0
-10 -21 -10 -47 0 -27 4 -43 8 -37 9 14 63 15 79 2 18 -14 28 17 16 45 -6 12
-8 41 -7 65 2 23 0 42 -6 42 -6 0 -10 -27 -10 -60z"/>
<path d="M1136 3441 c-4 -5 -2 -12 3 -15 5 -4 12 -2 15 3 4 5 2 12 -3 15 -5 4
-12 2 -15 -3z"/>
<path d="M1216 3441 c-4 -7 -5 -15 -2 -18 9 -9 19 4 14 18 -4 11 -6 11 -12 0z"/>
<path d="M1105 3421 c-3 -5 -1 -12 5 -16 5 -3 10 1 10 9 0 18 -6 21 -15 7z"/>
<path d="M1285 3420 c3 -5 8 -10 11 -10 2 0 4 5 4 10 0 6 -5 10 -11 10 -5 0
-7 -4 -4 -10z"/>
<path d="M1170 3410 c0 -5 7 -10 16 -10 8 0 12 5 9 10 -3 6 -10 10 -16 10 -5
0 -9 -4 -9 -10z"/>
<path d="M1246 3411 c-4 -5 -2 -12 3 -15 5 -4 12 -2 15 3 4 5 2 12 -3 15 -5 4
-12 2 -15 -3z"/>
<path d="M1140 3390 c0 -5 5 -10 10 -10 6 0 10 5 10 10 0 6 -4 10 -10 10 -5 0
-10 -4 -10 -10z"/>
<path d="M1280 3380 c0 -5 5 -10 10 -10 6 0 10 5 10 10 0 6 -4 10 -10 10 -5 0
-10 -4 -10 -10z"/>
<path d="M1100 3370 c0 -5 4 -10 9 -10 6 0 13 5 16 10 3 6 -1 10 -9 10 -9 0
-16 -4 -16 -10z"/>
<path d="M1180 3364 c0 -8 5 -12 10 -9 6 4 8 11 5 16 -9 14 -15 11 -15 -7z"/>
<path d="M1250 3360 c0 -5 5 -10 10 -10 6 0 10 5 10 10 0 6 -4 10 -10 10 -5 0
-10 -4 -10 -10z"/>
<path d="M1145 3351 c-3 -5 -1 -12 5 -16 5 -3 10 1 10 9 0 18 -6 21 -15 7z"/>
<path d="M3435 3350 c-3 -5 1 -10 10 -10 9 0 13 5 10 10 -3 6 -8 10 -10 10 -2
0 -7 -4 -10 -10z"/>
<path d="M1210 3340 c0 -5 5 -10 10 -10 6 0 10 5 10 10 0 6 -4 10 -10 10 -5 0
-10 -4 -10 -10z"/>
<path d="M1106 3331 c-4 -5 -2 -12 3 -15 5 -4 12 -2 15 3 4 5 2 12 -3 15 -5 4
-12 2 -15 -3z"/>
<path d="M3400 3330 c0 -5 5 -10 10 -10 6 0 10 5 10 10 0 6 -4 10 -10 10 -5 0
-10 -4 -10 -10z"/>
<path d="M1180 3320 c0 -5 5 -10 10 -10 6 0 10 5 10 10 0 6 -4 10 -10 10 -5 0
-10 -4 -10 -10z"/>
<path d="M1250 3315 c0 -8 5 -15 10 -15 6 0 10 7 10 15 0 8 -4 15 -10 15 -5 0
-10 -7 -10 -15z"/>
<path d="M2380 3310 c0 -5 7 -10 15 -10 8 0 15 5 15 10 0 6 -7 10 -15 10 -8 0
-15 -4 -15 -10z"/>
<path d="M2424 3309 c-3 -5 -1 -9 5 -9 5 0 16 -3 25 -6 9 -3 16 -2 16 4 0 13
-38 23 -46 11z"/>
<path d="M3370 3310 c0 -5 5 -10 11 -10 5 0 7 5 4 10 -3 6 -8 10 -11 10 -2 0
-4 -4 -4 -10z"/>
<path d="M1140 3300 c0 -5 5 -10 10 -10 6 0 10 5 10 10 0 6 -4 10 -10 10 -5 0
-10 -4 -10 -10z"/>
<path d="M1220 3294 c0 -8 5 -12 10 -9 6 4 8 11 5 16 -9 14 -15 11 -15 -7z"/>
<path d="M3440 3300 c0 -5 5 -10 10 -10 6 0 10 5 10 10 0 6 -4 10 -10 10 -5 0
-10 -4 -10 -10z"/>
<path d="M1290 3290 c0 -5 5 -10 10 -10 6 0 10 5 10 10 0 6 -4 10 -10 10 -5 0
-10 -4 -10 -10z"/>
<path d="M3330 3290 c0 -5 5 -10 10 -10 6 0 10 5 10 10 0 6 -4 10 -10 10 -5 0
-10 -4 -10 -10z"/>
<path d="M1110 3280 c0 -5 5 -10 10 -10 6 0 10 5 10 10 0 6 -4 10 -10 10 -5 0
-10 -4 -10 -10z"/>
<path d="M1186 3281 c-4 -7 -5 -15 -2 -18 9 -9 19 4 14 18 -4 11 -6 11 -12 0z"/>
<path d="M1360 3280 c0 -5 -9 -10 -20 -10 -24 0 -25 -4 -4 -35 14 -22 14 -24
-7 -36 -17 -9 -24 -9 -27 0 -4 12 -23 16 -21 4 4 -26 -3 -35 -22 -30 -13 3
-19 1 -16 -6 6 -18 78 -22 228 -13 103 7 105 4 103 -95 -2 -71 -5 -86 -23
-100 -12 -10 -21 -25 -21 -36 0 -21 20 -56 20 -35 0 6 5 12 11 12 6 0 8 -8 4
-19 -3 -11 -1 -22 5 -26 5 -3 10 -26 10 -50 0 -32 -5 -45 -17 -50 -17 -6 -17
-7 0 -16 9 -6 17 -21 17 -34 0 -14 5 -25 10 -25 6 0 10 6 9 13 -4 29 2 47 15
47 23 0 47 -30 41 -50 -3 -10 -1 -21 5 -25 6 -4 10 7 10 27 0 19 6 40 12 46
10 10 10 15 2 20 -8 5 -12 68 -13 198 -1 174 1 193 17 199 15 6 14 8 -6 16
-23 9 -52 3 -52 -11 0 -5 5 -10 11 -12 8 -3 11 -36 9 -103 -3 -120 -3 -144 1
-215 3 -59 -4 -80 -26 -80 -21 0 -33 30 -28 70 6 43 7 98 2 219 -3 64 0 99 8
111 10 15 10 20 -2 30 -8 7 -15 22 -15 34 0 33 -10 42 -55 49 -5 1 -10 -18
-10 -43 l0 -45 -54 0 c-54 0 -55 1 -70 37 -9 21 -22 38 -28 38 -7 0 -13 5 -13
10 0 6 5 10 10 10 6 0 10 5 10 10 0 6 -4 10 -10 10 -5 0 -10 -4 -10 -10z m210
-90 c0 -5 -5 -10 -11 -10 -5 0 -7 5 -4 10 3 6 8 10 11 10 2 0 4 -4 4 -10z"/>
<path d="M3400 3280 c0 -5 5 -10 10 -10 6 0 10 5 10 10 0 6 -4 10 -10 10 -5 0
-10 -4 -10 -10z"/>
<path d="M3475 3280 c-3 -5 1 -10 10 -10 9 0 13 5 10 10 -3 6 -8 10 -10 10 -2
0 -7 -4 -10 -10z"/>
<path d="M1250 3270 c0 -5 5 -10 10 -10 6 0 10 5 10 10 0 6 -4 10 -10 10 -5 0
-10 -4 -10 -10z"/>
<path d="M1146 3261 c-4 -5 -2 -12 3 -15 5 -4 12 -2 15 3 4 5 2 12 -3 15 -5 4
-12 2 -15 -3z"/>
<path d="M3370 3260 c0 -5 5 -10 10 -10 6 0 10 5 10 10 0 6 -4 10 -10 10 -5 0
-10 -4 -10 -10z"/>
<path d="M3440 3260 c0 -5 5 -10 10 -10 6 0 10 5 10 10 0 6 -4 10 -10 10 -5 0
-10 -4 -10 -10z"/>
<path d="M1040 3251 c0 -6 5 -13 10 -16 6 -3 10 1 10 9 0 9 -4 16 -10 16 -5 0
-10 -4 -10 -9z"/>
<path d="M1220 3250 c0 -5 5 -10 10 -10 6 0 10 5 10 10 0 6 -4 10 -10 10 -5 0
-10 -4 -10 -10z"/>
<path d="M1953 3253 c-21 -8 -15 -30 9 -36 22 -6 58 8 58 22 0 5 -10 11 -22
15 -26 6 -28 6 -45 -1z"/>
<path d="M1290 3240 c0 -5 7 -10 15 -10 8 0 15 5 15 10 0 6 -7 10 -15 10 -8 0
-15 -4 -15 -10z"/>
<path d="M3330 3240 c0 -5 5 -10 10 -10 6 0 10 5 10 10 0 6 -4 10 -10 10 -5 0
-10 -4 -10 -10z"/>
<path d="M3405 3240 c-3 -5 1 -10 10 -10 9 0 13 5 10 10 -3 6 -8 10 -10 10 -2
0 -7 -4 -10 -10z"/>
<path d="M1180 3230 c0 -5 5 -10 10 -10 6 0 10 5 10 10 0 6 -4 10 -10 10 -5 0
-10 -4 -10 -10z"/>
<path d="M3300 3226 c0 -9 5 -16 10 -16 6 0 10 4 10 9 0 6 -4 13 -10 16 -5 3
-10 -1 -10 -9z"/>
<path d="M3370 3220 c0 -5 5 -10 10 -10 6 0 10 5 10 10 0 6 -4 10 -10 10 -5 0
-10 -4 -10 -10z"/>
<path d="M3335 3200 c-3 -5 1 -10 10 -10 9 0 13 5 10 10 -3 6 -8 10 -10 10 -2
0 -7 -4 -10 -10z"/>
<path d="M3300 3180 c0 -5 5 -10 10 -10 6 0 10 5 10 10 0 6 -4 10 -10 10 -5 0
-10 -4 -10 -10z"/>
<path d="M925 3170 c-25 -5 -27 -7 -13 -15 20 -12 209 -4 206 9 -3 9 -148 14
-193 6z"/>
<path d="M770 3160 c0 -5 7 -10 15 -10 8 0 15 5 15 10 0 6 -7 10 -15 10 -8 0
-15 -4 -15 -10z"/>
<path d="M810 3160 c0 -5 5 -10 10 -10 6 0 10 5 10 10 0 6 -4 10 -10 10 -5 0
-10 -4 -10 -10z"/>
<path d="M1715 3161 c-3 -6 -1 -11 4 -11 7 0 11 -32 11 -85 0 -47 4 -85 8 -85
5 0 9 37 11 82 1 44 3 86 4 91 3 15 -30 21 -38 8z"/>
<path d="M1906 3162 c-13 -21 -38 -354 -27 -365 11 -11 210 -41 219 -33 3 4 0
11 -7 15 -8 6 -15 36 -19 80 l-5 71 50 0 c31 0 55 5 62 14 17 20 0 27 -40 16
-19 -6 -37 -10 -41 -10 -12 0 -10 38 2 45 6 4 7 12 3 18 -5 7 -8 43 -8 82 l0
69 -47 3 -47 2 -7 -67 c-9 -80 -6 -65 -27 -134 -29 -95 -38 -72 -32 72 5 110
3 130 -9 130 -8 0 -17 -4 -20 -8z"/>
<path d="M3340 3149 c0 -5 5 -7 10 -4 6 3 10 8 10 11 0 2 -4 4 -10 4 -5 0 -10
-5 -10 -11z"/>
<path d="M2312 3119 c0 -17 -3 -33 -6 -36 -3 -3 -1 -13 4 -23 5 -9 11 -29 14
-44 8 -45 17 -66 28 -66 7 0 7 -4 1 -12 -17 -23 -13 -58 7 -58 15 0 18 7 16
35 -2 19 0 32 5 30 4 -3 24 17 43 44 20 27 42 51 48 53 12 4 3 28 -11 28 -5 0
-25 -25 -45 -55 -20 -30 -40 -55 -45 -55 -16 0 -28 40 -38 138 -6 57 -19 71
-21 21z"/>
<path d="M3306 3141 c-4 -7 -5 -15 -2 -18 9 -9 19 4 14 18 -4 11 -6 11 -12 0z"/>
<path d="M3486 3061 c-4 -5 -2 -12 3 -15 5 -4 12 -2 15 3 4 5 2 12 -3 15 -5 4
-12 2 -15 -3z"/>
<path d="M150 3031 c0 -12 5 -21 10 -21 6 0 10 6 10 14 0 8 -4 18 -10 21 -5 3
-10 -3 -10 -14z"/>
<path d="M3450 3030 c0 -5 5 -10 10 -10 6 0 10 5 10 10 0 6 -4 10 -10 10 -5 0
-10 -4 -10 -10z"/>
<path d="M3520 3030 c0 -5 5 -10 10 -10 6 0 10 5 10 10 0 6 -4 10 -10 10 -5 0
-10 -4 -10 -10z"/>
<path d="M3416 3021 c-4 -5 -2 -12 3 -15 5 -4 12 -2 15 3 4 5 2 12 -3 15 -5 4
-12 2 -15 -3z"/>
<path d="M3490 3010 c0 -5 5 -10 10 -10 6 0 10 5 10 10 0 6 -4 10 -10 10 -5 0
-10 -4 -10 -10z"/>
<path d="M152 2965 c0 -19 4 -38 9 -41 5 -3 9 13 9 35 0 23 -4 41 -9 41 -5 0
-9 -16 -9 -35z"/>
<path d="M2623 2992 c-16 -10 -5 -92 13 -92 10 0 14 14 14 50 0 50 -4 57 -27
42z"/>
<path d="M3385 2990 c3 -5 8 -10 11 -10 2 0 4 5 4 10 0 6 -5 10 -11 10 -5 0
-7 -4 -4 -10z"/>
<path d="M1729 2942 c-5 -36 1 -82 10 -82 11 0 13 97 2 104 -5 3 -10 -7 -12
-22z"/>
<path d="M1325 2928 c-7 -22 -1 -68 10 -69 31 -4 68 1 81 12 23 19 17 39 -14
39 -15 0 -38 7 -50 16 -18 12 -23 13 -27 2z"/>
<path d="M160 2895 c0 -8 4 -15 10 -15 5 0 7 7 4 15 -4 8 -8 15 -10 15 -2 0
-4 -7 -4 -15z"/>
<path d="M1115 2890 c-3 -6 -17 -7 -31 -4 -18 5 -24 2 -24 -9 0 -9 5 -19 11
-22 6 -4 8 -13 5 -20 -3 -9 2 -11 15 -8 15 4 17 9 9 18 -7 9 -7 15 -1 19 5 4
14 -1 19 -10 8 -14 10 -11 14 15 4 30 -4 41 -17 21z"/>
<path d="M1030 2855 c0 -8 5 -15 10 -15 6 0 10 7 10 15 0 8 -4 15 -10 15 -5 0
-10 -7 -10 -15z"/>
<path d="M1146 2820 c-22 -17 -45 -30 -52 -30 -8 0 -18 -9 -24 -19 -13 -24
-13 -62 -1 -58 5 1 16 -6 23 -17 14 -18 16 -18 61 3 26 12 58 26 71 31 17 6
25 18 28 44 2 20 0 36 -4 36 -5 0 -18 9 -30 20 -27 25 -25 25 -72 -10z m24
-30 c0 -5 -4 -10 -9 -10 -6 0 -13 5 -16 10 -3 6 1 10 9 10 9 0 16 -4 16 -10z"/>
<path d="M2310 2835 c-10 -12 -10 -15 4 -15 9 0 16 7 16 15 0 8 -2 15 -4 15
-2 0 -9 -7 -16 -15z"/>
<path d="M3030 2840 c0 -5 5 -10 10 -10 6 0 10 5 10 10 0 6 -4 10 -10 10 -5 0
-10 -4 -10 -10z"/>
<path d="M3100 2840 c0 -5 5 -10 10 -10 6 0 10 5 10 10 0 6 -4 10 -10 10 -5 0
-10 -4 -10 -10z"/>
<path d="M2996 2831 c-4 -5 -2 -12 3 -15 5 -4 12 -2 15 3 4 5 2 12 -3 15 -5 4
-12 2 -15 -3z"/>
<path d="M3070 2820 c0 -5 5 -10 11 -10 5 0 7 5 4 10 -3 6 -8 10 -11 10 -2 0
-4 -4 -4 -10z"/>
<path d="M2867 2796 c-3 -8 -14 -12 -25 -10 -15 5 -20 -3 -30 -47 -13 -55 -7
-77 12 -45 6 10 25 41 43 67 20 31 27 49 18 49 -7 0 -15 -6 -18 -14z"/>
<path d="M2960 2800 c0 -5 5 -10 10 -10 6 0 10 5 10 10 0 6 -4 10 -10 10 -5 0
-10 -4 -10 -10z"/>
<path d="M3030 2800 c0 -5 5 -10 10 -10 6 0 10 5 10 10 0 6 -4 10 -10 10 -5 0
-10 -4 -10 -10z"/>
<path d="M2926 2791 c-4 -5 -2 -12 3 -15 5 -4 12 -2 15 3 4 5 2 12 -3 15 -5 4
-12 2 -15 -3z"/>
<path d="M3105 2790 c3 -5 8 -10 11 -10 2 0 4 5 4 10 0 6 -5 10 -11 10 -5 0
-7 -4 -4 -10z"/>
<path d="M3000 2780 c0 -5 5 -10 10 -10 6 0 10 5 10 10 0 6 -4 10 -10 10 -5 0
-10 -4 -10 -10z"/>
<path d="M3070 2770 c0 -5 5 -10 10 -10 6 0 10 5 10 10 0 6 -4 10 -10 10 -5 0
-10 -4 -10 -10z"/>
<path d="M171 2754 c0 -11 3 -14 6 -6 3 7 2 16 -1 19 -3 4 -6 -2 -5 -13z"/>
<path d="M2960 2760 c0 -5 5 -10 10 -10 6 0 10 5 10 10 0 6 -4 10 -10 10 -5 0
-10 -4 -10 -10z"/>
<path d="M3035 2761 c-3 -5 -1 -12 5 -16 5 -3 10 1 10 9 0 18 -6 21 -15 7z"/>
<path d="M765 2752 c-15 -15 4 -19 95 -18 59 0 99 4 97 10 -3 10 -183 17 -192
8z"/>
<path d="M1354 2748 c-5 -8 5 -10 51 -10 42 0 49 2 41 10 -10 9 -86 10 -92 0z"/>
<path d="M2550 2736 c-18 -18 -40 -26 -80 -31 -77 -8 -108 -15 -160 -37 -46
-20 -100 -64 -100 -81 0 -6 -12 -25 -26 -44 -35 -46 -69 -43 -70 7 -1 63 -6
66 -130 85 -63 10 -118 15 -121 11 -12 -12 -2 -120 17 -192 11 -41 20 -87 20
-104 0 -64 83 -173 165 -219 23 -12 53 -42 68 -66 27 -42 57 -162 57 -228 0
-18 12 -57 27 -87 15 -30 32 -77 37 -105 10 -47 13 -50 41 -48 17 1 49 2 72 4
55 2 69 19 56 63 -6 18 -11 60 -11 92 0 33 -3 66 -7 75 -3 10 -2 20 4 24 14 8
14 133 0 174 -14 39 -10 43 44 50 33 5 42 10 42 26 0 22 -6 22 -70 6 -45 -11
-49 -8 -67 57 -8 28 -30 61 -64 95 -81 84 -88 98 -80 169 4 33 16 85 27 114
17 44 29 59 65 80 25 15 46 25 48 23 1 -2 19 -34 40 -71 20 -37 45 -73 55 -80
10 -7 29 -31 44 -53 14 -22 37 -49 52 -60 14 -11 34 -28 43 -37 9 -10 20 -18
25 -18 5 0 14 -6 21 -12 8 -7 24 -20 36 -28 23 -16 35 -25 96 -75 38 -31 104
-60 104 -46 0 10 -75 61 -89 61 -5 0 -11 7 -15 15 -3 8 -12 15 -21 15 -8 0
-15 4 -15 8 0 6 -90 78 -142 113 -14 9 1 35 28 50 14 7 54 53 89 101 36 48 69
88 74 88 5 0 15 -7 22 -17 24 -28 91 -53 144 -52 51 1 148 28 146 42 -1 4 -1
17 -1 30 0 13 -3 17 -8 11 -15 -24 -76 -45 -125 -45 -68 0 -102 13 -146 59
-51 52 -97 72 -170 72 -61 0 -71 6 -49 28 9 9 9 12 -3 12 -8 0 -26 -11 -39
-24z m184 -77 l26 -20 -62 -82 c-75 -99 -126 -149 -147 -145 -9 2 -28 25 -42
51 -14 26 -39 62 -56 80 -36 38 -77 106 -70 113 3 3 44 8 91 11 l86 5 0 -25
c0 -39 10 -57 32 -57 15 0 18 4 13 18 -18 43 -18 55 -2 49 9 -3 18 0 21 9 8
22 78 18 110 -7z"/>
<path d="M1268 2743 c7 -3 16 -2 19 1 4 3 -2 6 -13 5 -11 0 -14 -3 -6 -6z"/>
<path d="M2930 2740 c0 -5 5 -10 10 -10 6 0 10 5 10 10 0 6 -4 10 -10 10 -5 0
-10 -4 -10 -10z"/>
<path d="M3000 2736 c0 -9 5 -16 10 -16 6 0 10 4 10 9 0 6 -4 13 -10 16 -5 3
-10 -1 -10 -9z"/>
<path d="M3070 2730 c0 -5 5 -10 10 -10 6 0 10 5 10 10 0 6 -4 10 -10 10 -5 0
-10 -4 -10 -10z"/>
<path d="M2890 2720 c0 -5 5 -10 10 -10 6 0 10 5 10 10 0 6 -4 10 -10 10 -5 0
-10 -4 -10 -10z"/>
<path d="M2965 2721 c-3 -5 -1 -12 5 -16 5 -3 10 1 10 9 0 18 -6 21 -15 7z"/>
<path d="M3035 2710 c-3 -5 1 -10 10 -10 9 0 13 5 10 10 -3 6 -8 10 -10 10 -2
0 -7 -4 -10 -10z"/>
<path d="M3843 2700 c-3 -11 -8 -20 -12 -20 -4 0 -25 -23 -46 -52 -22 -29 -51
-64 -65 -78 -14 -15 -41 -46 -60 -69 -19 -24 -43 -51 -52 -59 -10 -9 -18 -21
-18 -27 0 -6 -10 -16 -21 -24 -18 -11 -26 -11 -48 1 -29 15 -60 47 -61 64 0
11 -54 54 -69 54 -16 0 -22 32 -9 48 7 8 32 23 55 33 24 10 43 23 43 29 0 16
-62 11 -99 -9 -34 -18 -36 -18 -90 0 -98 34 -83 -7 45 -123 28 -27 58 -48 66
-48 15 0 48 -30 48 -44 0 -4 -23 -30 -50 -57 l-50 -50 16 -31 c16 -30 16 -33
-4 -48 -21 -17 -25 -30 -23 -63 1 -14 6 -17 22 -12 18 6 19 5 8 -13 -10 -17
-10 -25 4 -45 9 -14 14 -33 10 -43 -5 -13 -2 -15 15 -10 16 5 30 -1 54 -23 30
-28 48 -32 48 -11 0 4 -22 31 -49 58 -37 36 -49 54 -45 69 3 12 1 30 -4 40 -8
15 -6 22 10 32 11 7 17 19 14 26 -3 8 -2 14 2 13 14 -3 42 14 42 26 0 6 9 17
20 23 16 11 21 10 30 -7 6 -11 20 -20 30 -20 23 0 24 4 10 30 -14 26 7 70 34
70 15 0 17 3 9 11 -14 14 -6 37 21 65 30 29 113 127 164 192 24 32 48 59 52
62 11 7 24 60 15 60 -4 0 -9 -9 -12 -20z m-339 -356 c26 -10 19 -29 -29 -81
-44 -46 -46 -47 -60 -29 -21 28 -19 35 24 78 43 41 42 41 65 32z"/>
<path d="M2930 2696 c0 -9 5 -16 10 -16 6 0 10 4 10 9 0 6 -4 13 -10 16 -5 3
-10 -1 -10 -9z"/>
<path d="M829 2696 c-3 -3 -228 -14 -316 -16 -7 0 -13 -8 -13 -18 0 -10 -5
-23 -11 -29 -6 -6 -9 -15 -6 -20 3 -4 96 -7 206 -5 135 2 200 6 195 13 -3 6
-6 26 -6 45 0 29 -4 34 -22 34 -13 0 -25 -2 -27 -4z"/>
<path d="M3000 2690 c0 -5 5 -10 10 -10 6 0 10 5 10 10 0 6 -4 10 -10 10 -5 0
-10 -4 -10 -10z"/>
<path d="M3075 2691 c-3 -5 -1 -12 5 -16 5 -3 10 1 10 9 0 18 -6 21 -15 7z"/>
<path d="M1465 2680 c-7 -12 2 -30 16 -30 12 0 12 27 0 35 -5 3 -12 1 -16 -5z"/>
<path d="M58 2673 c-54 -4 -58 -6 -58 -29 0 -16 7 -28 17 -30 15 -4 18 -17 18
-74 0 -81 25 -128 66 -122 43 7 51 21 46 86 -3 34 -6 70 -8 81 -4 19 1 20 137
20 139 0 141 0 128 20 -8 11 -14 27 -14 37 0 16 -12 18 -137 16 -76 -1 -164
-3 -195 -5z"/>
<path d="M896 2673 c-8 -9 6 -33 19 -33 23 0 27 -19 11 -42 -14 -20 -14 -24 2
-42 14 -17 14 -18 1 -8 -13 10 -19 9 -29 -3 -7 -8 -20 -15 -29 -15 -9 0 -1 -8
17 -17 31 -15 34 -15 50 3 53 59 66 110 35 143 -16 17 -65 26 -77 14z"/>
<path d="M2960 2670 c0 -5 7 -10 15 -10 8 0 15 5 15 10 0 6 -7 10 -15 10 -8 0
-15 -4 -15 -10z"/>
<path d="M3040 2666 c0 -9 5 -16 10 -16 6 0 10 4 10 9 0 6 -4 13 -10 16 -5 3
-10 -1 -10 -9z"/>
<path d="M240 2555 c-7 -8 -21 -15 -31 -15 -20 0 -26 -15 -9 -25 5 -3 9 -48 9
-99 -1 -52 2 -104 6 -115 5 -18 2 -21 -23 -21 -35 0 -48 -13 -57 -60 -5 -28
-2 -39 14 -54 17 -16 23 -16 57 -4 20 7 39 21 42 31 3 13 8 15 18 6 7 -6 10
-17 7 -25 -3 -7 2 -16 10 -20 8 -3 22 -24 32 -47 33 -80 50 -107 67 -113 19
-6 25 -24 8 -24 -5 0 -10 -4 -10 -10 0 -5 6 -10 14 -10 8 0 28 -16 46 -36 l31
-36 -6 -97 c-9 -117 -9 -116 3 -169 12 -53 16 -57 60 -57 48 0 53 -22 7 -31
-36 -6 -44 -31 -9 -27 24 2 35 -16 27 -42 -8 -27 -84 -97 -99 -91 -14 5 -128
-47 -138 -63 -12 -19 23 -12 67 13 23 13 57 26 75 30 30 5 34 3 44 -24 12 -35
18 -36 60 -14 28 15 33 15 43 1 10 -14 17 -14 66 2 49 16 54 21 59 52 8 56 74
71 102 24 6 -10 25 -7 83 13 41 14 75 31 75 37 0 6 -7 20 -15 31 -22 29 -18
39 22 58 39 19 47 15 59 -32 4 -16 -1 -28 -17 -42 l-24 -21 39 16 c21 8 40 15
42 15 12 0 -6 43 -96 226 -56 112 -105 204 -111 204 -6 0 -6 -7 1 -19 16 -31
12 -39 -16 -33 -32 6 -43 31 -20 48 14 10 15 17 7 33 -15 27 -14 66 3 80 11 9
9 19 -10 58 -13 25 -24 53 -24 60 0 24 -42 97 -67 118 -14 12 -27 32 -29 45
-2 14 -8 45 -13 70 -5 25 -8 46 -6 48 1 1 50 4 108 5 109 2 123 6 114 31 -5
13 -9 13 -36 0 -21 -10 -54 -14 -108 -12 l-78 3 0 60 c0 69 -10 92 -30 75 -8
-7 -16 -7 -19 -2 -3 6 -95 11 -209 11 -173 2 -206 0 -217 -14z m454 -180 c3
-8 1 -15 -4 -15 -6 0 -10 7 -10 15 0 8 2 15 4 15 2 0 6 -7 10 -15z m57 -166
c21 -22 43 -58 49 -80 6 -22 14 -47 17 -55 3 -8 -1 -14 -9 -14 -8 0 -20 16
-28 35 -8 19 -17 35 -21 35 -4 0 -5 9 -2 20 4 15 0 20 -14 20 -14 0 -22 11
-30 40 -5 22 -8 40 -6 40 3 0 22 -18 44 -41z m99 -205 c0 -8 -6 -14 -14 -14
-9 0 -12 7 -9 20 6 22 23 18 23 -6z"/>
<path d="M780 2550 c0 -15 -7 -20 -25 -20 -14 0 -25 -4 -25 -10 0 -5 25 -10
55 -10 30 0 55 5 55 10 0 6 -6 10 -14 10 -8 0 -18 9 -21 20 -3 11 -11 20 -16
20 -5 0 -9 -9 -9 -20z"/>
<path d="M1013 2532 c-13 -2 -23 -7 -23 -12 0 -11 279 -9 286 2 6 9 12 9 -131
11 -60 2 -120 1 -132 -1z"/>
<path d="M1036 2461 c-4 -5 0 -11 6 -14 18 -5 48 3 48 14 0 12 -47 12 -54 0z"/>
<path d="M1730 2404 c0 -8 5 -12 10 -9 6 3 10 10 10 16 0 5 -4 9 -10 9 -5 0
-10 -7 -10 -16z"/>
<path d="M1738 2309 c-4 -11 -4 -254 1 -281 0 -5 5 -8 10 -8 10 0 12 256 1
284 -5 15 -8 16 -12 5z"/>
<path d="M1093 2265 c-13 -9 -23 -11 -23 -6 0 18 -19 12 -31 -10 -9 -18 -6
-26 22 -55 27 -28 40 -34 76 -34 36 0 45 4 57 28 8 15 15 21 16 14 0 -18 20
-4 20 14 0 8 -4 12 -10 9 -5 -3 -10 -2 -10 2 0 41 -78 66 -117 38z"/>
<path d="M1659 2208 c0 -13 -1 -67 -1 -120 l-1 -98 -29 0 c-17 0 -28 5 -27 13
6 48 -3 197 -12 197 -7 0 -9 -34 -7 -102 1 -57 -1 -109 -5 -115 -8 -13 -4 -14
53 -17 18 -1 26 -7 28 -23 2 -13 8 -23 14 -23 5 0 8 6 5 14 -3 7 -1 18 5 24 7
7 7 20 1 39 -5 15 -8 72 -7 126 1 53 -2 100 -7 103 -5 3 -9 -5 -10 -18z"/>
<path d="M1445 2101 c-21 -4 -30 -12 -30 -25 0 -25 -25 -34 -25 -9 -1 17 -1
17 -11 1 -7 -12 -6 -24 2 -39 18 -35 -1 -41 -123 -41 -169 1 -162 0 -149 16
16 20 -10 39 -43 30 -29 -7 -26 -21 8 -34 18 -7 16 -9 -14 -10 -48 -1 -73 -16
-39 -25 36 -9 100 -12 104 -5 2 3 65 5 139 5 100 0 136 3 136 12 0 7 7 10 15
7 8 -4 15 -12 15 -20 0 -8 9 -14 20 -14 25 0 26 17 3 23 -13 3 -7 9 20 21 32
14 37 19 27 31 -7 8 -10 15 -6 15 4 0 0 14 -9 30 -17 33 -10 38 21 15 23 -16
36 -11 27 11 -5 14 -36 16 -88 5z m-5 -71 c0 -5 -7 -10 -16 -10 -8 0 -12 5 -9
10 3 6 10 10 16 10 5 0 9 -4 9 -10z"/>
<path d="M3308 2089 c-10 -5 -18 -14 -18 -19 0 -18 -156 -167 -203 -194 -26
-16 -53 -36 -60 -46 -6 -9 -36 -32 -65 -50 -47 -28 -86 -71 -65 -70 4 0 42 25
83 55 41 30 93 67 115 82 22 14 80 67 128 117 48 50 97 101 110 114 23 24 8
31 -25 11z"/>
<path d="M1960 2005 c0 -12 -18 -15 -99 -15 -63 0 -102 4 -107 11 -10 17 -26
-17 -19 -41 7 -23 25 -27 25 -5 0 12 19 15 109 15 61 0 112 4 115 9 8 12 -3
41 -15 41 -5 0 -9 -7 -9 -15z"/>
<path d="M1501 1949 c-28 -37 -24 -42 17 -27 34 13 40 29 19 47 -10 8 -19 4
-36 -20z"/>
<path d="M1586 1934 c-8 -22 -7 -34 3 -34 5 0 9 11 9 25 0 29 -3 31 -12 9z"/>
<path d="M944 1915 c-2 -30 11 -33 26 -6 14 27 13 31 -7 31 -12 0 -18 -8 -19
-25z"/>
<path d="M980 1897 c-14 -29 -7 -48 11 -30 6 6 9 21 7 34 l-4 24 -14 -28z"/>
<path d="M1740 1879 c0 -40 0 -40 -22 -25 -21 15 -23 15 -38 -16 -13 -28 -21
-33 -50 -34 -48 0 -50 -34 -2 -48 17 -5 32 -15 32 -21 0 -7 14 0 30 15 17 15
30 35 30 43 0 9 4 18 9 21 6 4 9 -41 9 -106 -1 -112 7 -178 23 -209 6 -11 4
-21 -6 -29 -15 -12 -11 -35 5 -25 4 3 10 -1 13 -7 3 -10 7 -10 20 0 13 11 23
11 53 2 30 -10 38 -10 45 1 5 9 3 16 -8 20 -12 4 -13 8 -5 13 15 9 16 36 2 36
-5 0 -10 -8 -10 -17 -1 -16 -2 -15 -12 2 -6 11 -16 23 -22 27 -17 11 -28 -3
-15 -19 10 -12 10 -16 -1 -23 -13 -8 -39 -3 -41 9 0 3 -1 29 -2 56 l-2 50 33
-1 c17 -1 32 2 32 6 0 4 28 11 63 14 131 14 208 29 204 40 -4 12 -90 10 -177
-4 -30 -5 -74 -12 -97 -15 -23 -2 -48 -6 -55 -7 -10 -2 -13 24 -14 112 -2 165
-3 180 -14 180 -5 0 -10 -18 -10 -41z"/>
<path d="M1850 1855 c0 -14 7 -33 16 -42 14 -14 15 -12 12 22 -3 44 -28 62
-28 20z"/>
<path d="M1630 1850 c-12 -8 -11 -10 7 -10 12 0 25 5 28 10 8 13 -15 13 -35 0z"/>
<path d="M1217 1838 c-18 -11 6 -30 53 -44 36 -11 40 -10 40 6 0 10 2 24 5 32
4 10 -7 13 -41 13 -25 0 -51 -3 -57 -7z"/>
<path d="M1361 1833 c-6 -10 -11 -13 -11 -8 0 14 -20 -17 -20 -32 0 -7 5 -13
10 -13 6 0 10 8 10 18 1 16 1 16 14 0 19 -25 24 -22 22 11 -2 38 -11 47 -25
24z"/>
<path d="M1256 1765 c-8 -8 -22 -12 -30 -9 -9 3 -16 1 -16 -4 0 -18 19 -23 40
-12 16 8 25 8 34 0 10 -8 15 -7 19 3 3 7 -3 19 -14 25 -14 9 -21 8 -33 -3z"/>
<path d="M1587 1743 c-10 -16 -4 -132 6 -130 6 1 15 -11 20 -28 5 -16 13 -46
19 -65 6 -19 17 -42 24 -51 9 -10 12 -33 10 -67 -2 -29 0 -55 5 -58 5 -3 9 15
9 39 0 38 4 45 26 56 29 13 25 25 -7 26 -15 0 -25 11 -34 39 -8 22 -12 43 -10
46 5 8 -17 73 -27 80 -6 5 -16 59 -17 103 -1 17 -16 23 -24 10z"/>
<path d="M1124 1726 c-9 -24 7 -50 35 -54 27 -4 26 6 -4 43 -22 26 -25 27 -31
11z"/>
<path d="M1190 1704 c0 -8 5 -12 10 -9 6 4 8 11 5 16 -9 14 -15 11 -15 -7z"/>
<path d="M1221 1704 c0 -11 3 -14 6 -6 3 7 2 16 -1 19 -3 4 -6 -2 -5 -13z"/>
<path d="M1275 1696 c-20 -15 -20 -15 1 -55 15 -28 18 -43 11 -50 -6 -6 -9
-11 -6 -12 62 -11 124 4 115 28 -4 8 -6 17 -6 20 0 3 -7 -1 -17 -8 -15 -13
-15 -12 -5 8 24 44 8 82 -28 63 -18 -9 -24 -9 -33 5 -11 14 -14 14 -32 1z m45
-46 c0 -5 -5 -10 -11 -10 -5 0 -7 5 -4 10 3 6 8 10 11 10 2 0 4 -4 4 -10z"/>
<path d="M1410 1681 c0 -5 5 -13 10 -16 6 -3 10 -2 10 4 0 5 -4 13 -10 16 -5
3 -10 2 -10 -4z"/>
<path d="M1506 1673 c-6 -14 -5 -15 5 -6 7 7 10 15 7 18 -3 3 -9 -2 -12 -12z"/>
<path d="M1656 1668 c-19 -10 -19 -11 -1 -24 14 -11 16 -16 6 -28 -9 -10 -9
-16 -1 -21 17 -11 22 -1 18 43 -3 37 -5 40 -22 30z"/>
<path d="M1508 1623 c7 -3 16 -2 19 1 4 3 -2 6 -13 5 -11 0 -14 -3 -6 -6z"/>
<path d="M2160 1616 c0 -2 4 -15 9 -29 12 -30 0 -50 -31 -52 -107 -9 -175 -19
-185 -27 -15 -12 -17 -32 -3 -23 6 3 22 -3 36 -14 21 -16 30 -18 52 -10 15 6
54 11 87 11 l60 1 3 -46 c3 -49 -19 -115 -40 -121 -7 -3 -25 -7 -39 -10 -15
-3 -41 -19 -59 -36 -18 -17 -47 -40 -64 -52 -17 -12 -40 -31 -52 -42 -12 -12
-47 -41 -79 -66 -32 -25 -71 -58 -86 -75 -28 -28 -31 -29 -71 -18 -24 7 -50
14 -58 17 -8 3 -21 2 -29 -3 -21 -13 2 -61 28 -61 11 0 31 -4 45 -10 l25 -9
-31 -83 c-17 -46 -38 -103 -46 -128 -28 -82 -54 -130 -68 -130 -8 0 -17 -8
-21 -17 -7 -21 -60 -73 -73 -73 -19 0 -21 -22 -5 -46 33 -51 276 -280 322
-304 90 -47 158 -90 197 -125 32 -29 48 -35 83 -35 24 0 43 3 43 8 -1 15 -148
121 -234 168 -84 46 -143 94 -278 226 -32 30 -71 61 -88 68 -29 12 -45 35 -17
24 17 -6 87 50 118 94 19 28 20 35 8 43 -10 6 -8 9 11 9 23 0 29 9 59 93 19
50 45 114 58 140 21 42 28 48 47 43 18 -4 26 0 34 18 9 21 8 27 -10 38 -21 14
-21 15 13 36 19 11 50 37 69 57 19 21 60 55 90 76 59 43 125 93 180 140 19 16
38 29 42 29 4 0 14 13 23 29 11 22 13 46 8 92 -5 53 -4 62 9 57 24 -10 37 5
31 34 -3 18 -12 28 -26 30 -15 2 -23 12 -27 33 -4 25 -10 30 -38 33 -17 2 -32
1 -32 -2z"/>
<path d="M2620 1600 c-19 -5 -62 -11 -94 -14 -127 -13 -134 -15 -139 -50 -2
-17 -4 -32 -3 -32 0 -1 30 2 66 7 36 4 94 11 130 14 97 9 135 19 137 35 7 37
-37 54 -97 40z"/>
<path d="M2915 1580 c-45 -10 -14 -18 100 -24 55 -3 142 -10 194 -16 86 -10
113 -9 99 6 -8 7 -221 34 -303 38 -33 1 -73 0 -90 -4z"/>
<path d="M1820 1566 c0 -8 5 -18 10 -21 6 -3 10 1 10 9 0 8 -4 18 -10 21 -5 3
-10 -1 -10 -9z"/>
<path d="M1210 1550 c0 -18 30 -70 40 -70 13 0 13 4 -7 45 -16 34 -33 46 -33
25z"/>
<path d="M2730 1550 c0 -5 4 -10 9 -10 6 0 13 5 16 10 3 6 -1 10 -9 10 -9 0
-16 -4 -16 -10z"/>
<path d="M2323 1532 c-8 -19 3 -25 24 -13 10 6 14 11 8 11 -5 0 -3 5 5 10 11
7 9 9 -9 7 -13 -1 -26 -7 -28 -15z"/>
<path d="M1290 1521 c5 -11 10 -31 10 -44 0 -14 6 -30 14 -36 8 -7 12 -21 8
-33 -4 -18 -2 -20 14 -14 10 5 30 9 44 11 39 3 42 4 34 16 -4 7 -21 9 -41 6
-30 -5 -35 -3 -45 21 -9 24 -13 41 -17 80 0 6 -8 12 -16 12 -12 0 -13 -4 -5
-19z"/>
<path d="M1428 1523 c-22 -5 -24 -23 -3 -23 8 0 15 -7 15 -15 0 -17 18 -19 39
-6 11 7 9 11 -8 20 -12 7 -19 16 -16 22 6 9 2 10 -27 2z"/>
<path d="M1606 1502 c-3 -5 1 -15 9 -22 16 -14 20 -3 6 19 -5 8 -11 9 -15 3z"/>
<path d="M2380 1463 c-101 -10 -100 -9 -95 -58 7 -55 -20 -110 -68 -140 -34
-20 -88 -63 -158 -123 -33 -29 -37 -36 -28 -58 6 -17 5 -32 -2 -46 -9 -17 -8
-19 10 -13 11 3 29 1 40 -4 13 -7 22 -8 26 -1 3 5 14 10 24 10 10 0 21 9 24
19 5 20 117 98 153 107 21 5 94 -31 94 -47 0 -4 17 -11 38 -14 54 -9 67 -19
67 -50 0 -16 6 -30 13 -32 8 -3 12 7 12 31 0 34 1 35 30 30 35 -8 38 1 10 24
-27 22 -44 91 -24 99 26 10 14 23 -27 29 -31 5 -43 13 -50 31 -12 33 -13 33
21 33 27 0 30 2 20 19 -14 28 -12 36 5 21 8 -7 15 -18 15 -25 0 -22 38 -47 79
-52 34 -5 41 -3 41 11 0 10 -11 19 -31 23 -19 4 -38 17 -48 34 -10 16 -29 37
-42 48 -14 11 -34 38 -44 60 -19 43 -18 43 -105 34z m110 -125 c0 -13 -36 -9
-49 5 -6 8 -8 17 -5 20 8 7 54 -14 54 -25z m-40 -48 c0 -4 -11 -5 -25 -2 -14
2 -23 8 -20 12 6 10 45 1 45 -10z"/>
<path d="M1182 1452 c-9 -6 -5 -14 14 -31 17 -15 23 -28 19 -39 -14 -34 -10
-46 23 -56 28 -8 32 -13 28 -31 -7 -29 25 -59 53 -50 41 13 22 102 -26 124
-18 8 -23 16 -18 31 7 23 -4 45 -25 46 -8 1 -24 4 -35 7 -11 4 -26 3 -33 -1z"/>
<path d="M1098 1425 c-7 -7 -129 -53 -178 -67 -19 -6 -53 -18 -75 -28 -22 -10
-69 -28 -105 -39 -36 -11 -99 -32 -140 -46 -59 -21 -98 -27 -182 -29 -80 -3
-114 -8 -133 -20 -30 -20 -28 -38 4 -46 22 -5 22 -6 4 -21 -29 -25 -83 -48
-99 -42 -23 9 -16 22 23 45 36 22 32 39 -6 19 -11 -6 -30 -11 -42 -11 -29 0
-146 -66 -159 -90 -16 -29 -12 -192 6 -257 9 -32 20 -74 25 -93 4 -19 12 -53
18 -75 23 -93 29 -113 54 -161 14 -29 48 -71 75 -95 59 -53 86 -101 78 -140
-3 -16 -22 -64 -42 -106 -59 -127 -59 -123 -21 -123 31 1 34 4 74 93 57 128
62 164 28 232 -14 30 -30 55 -35 55 -14 0 -89 79 -106 112 -14 27 -52 162 -84
298 -4 19 -14 58 -22 85 -7 28 -12 60 -10 73 4 27 49 57 107 73 22 6 45 20 53
30 20 28 50 41 102 44 26 2 58 10 71 18 13 9 60 25 104 36 44 11 116 34 160
51 44 17 118 44 165 60 47 16 97 33 110 38 14 6 59 20 100 33 41 12 78 25 81
28 10 10 19 71 10 71 -4 0 -10 -2 -13 -5z"/>
<path d="M1142 1418 c-25 -12 -25 -26 1 -42 19 -12 22 -10 31 27 7 29 3 31
-32 15z"/>
<path d="M1460 1409 c0 -5 5 -7 10 -4 6 3 10 8 10 11 0 2 -4 4 -10 4 -5 0 -10
-5 -10 -11z"/>
<path d="M1777 1403 c-3 -5 -4 -25 -1 -44 3 -19 6 -43 8 -54 1 -11 11 -35 20
-53 10 -19 16 -36 13 -38 -2 -3 -22 13 -43 34 -28 28 -47 38 -69 38 -29 -1
-30 -2 -31 -54 0 -29 -6 -58 -12 -64 -18 -18 -15 -28 8 -28 30 0 44 59 25 103
-5 12 -3 17 9 17 9 0 16 -4 16 -10 0 -5 18 -19 40 -30 21 -11 50 -32 64 -47
21 -22 27 -24 40 -14 16 14 22 41 9 41 -20 0 -63 89 -64 134 -2 47 -21 88 -32
69z"/>
<path d="M1527 1364 c-3 -3 -3 -12 0 -20 3 -8 0 -21 -6 -28 -10 -12 -21 -12
-77 3 l-64 18 -14 -28 c-20 -41 -6 -47 107 -50 87 -2 97 -4 97 -21 0 -16 -3
-17 -21 -8 -11 7 -24 9 -27 5 -9 -8 28 -36 39 -30 4 3 10 1 14 -5 3 -5 15 -10
26 -10 24 0 26 35 3 48 -15 8 -15 10 0 15 28 11 17 34 -23 50 -33 14 -38 19
-34 41 5 24 -5 34 -20 20z m-87 -64 c3 -1 8 -2 13 -1 4 0 7 -3 7 -9 0 -11 -39
-13 -64 -4 -27 10 -18 25 12 20 15 -2 29 -5 32 -6z"/>
<path d="M1065 1304 c-22 -8 -53 -19 -70 -24 -50 -14 -146 -47 -220 -75 -38
-14 -84 -30 -101 -34 -41 -11 -54 -19 -54 -35 0 -16 -42 -46 -63 -46 -26 0
-38 -25 -23 -45 13 -18 15 -18 66 3 56 23 90 28 90 12 0 -12 -37 -32 -75 -40
-36 -7 -44 -37 -18 -69 16 -19 21 -20 50 -9 29 11 35 10 50 -5 15 -14 16 -21
5 -37 -14 -23 -2 -26 29 -10 27 15 24 2 -6 -22 -25 -19 -25 -20 -8 -49 10 -16
23 -29 29 -29 7 0 14 -22 16 -52 3 -28 12 -56 19 -62 8 -6 19 -26 26 -44 9
-26 9 -35 -4 -47 -8 -8 -19 -13 -24 -10 -5 4 -9 1 -9 -5 0 -17 -79 -89 -104
-96 -17 -4 -32 3 -57 25 -38 35 -59 40 -59 14 0 -23 11 -38 33 -46 28 -10 12
-25 -45 -42 -79 -23 -188 -76 -188 -91 0 -8 5 -14 10 -14 6 0 10 7 10 16 0 8
5 12 10 9 6 -3 10 -18 10 -33 1 -25 2 -25 14 -9 7 9 18 17 25 17 6 0 11 5 11
10 0 6 6 10 14 10 8 0 44 14 80 31 44 20 75 29 90 25 16 -4 26 -1 30 9 3 8 11
12 18 10 8 -3 18 7 25 25 10 27 14 29 36 19 19 -9 30 -7 58 10 40 24 59 27 59
7 0 -8 6 -16 13 -19 9 -3 9 -7 -1 -19 -10 -13 -9 -16 6 -20 11 -3 22 -15 25
-27 4 -17 0 -24 -20 -32 -18 -6 -30 -6 -39 2 -11 9 -14 8 -14 -5 0 -13 -5 -16
-20 -11 -14 5 -20 2 -20 -10 0 -9 -6 -15 -12 -13 -7 1 -30 -6 -50 -16 -31 -15
-38 -24 -38 -47 0 -31 9 -36 27 -18 13 13 43 5 43 -11 0 -5 -6 -10 -13 -10 -8
0 -14 -11 -14 -27 0 -16 -7 -44 -15 -63 -9 -19 -19 -53 -22 -74 -3 -22 -11
-43 -18 -48 -7 -4 25 -8 73 -8 l86 0 1 45 c1 79 48 123 97 91 32 -21 34 -70 5
-88 -11 -7 -20 -21 -20 -30 0 -17 20 -18 299 -18 l299 0 8 33 c4 17 8 56 9 86
l2 54 56 28 56 29 -102 102 c-108 109 -210 223 -239 266 -10 15 -15 36 -12 48
3 12 1 25 -5 28 -15 10 -71 130 -71 154 0 12 5 24 10 27 20 12 11 36 -12 33
-17 -2 -24 4 -31 27 -5 17 -20 54 -34 84 -27 61 -24 70 34 89 32 11 33 10 53
-35 11 -25 20 -56 20 -69 0 -25 7 -29 27 -16 10 6 6 28 -18 93 -17 46 -41 111
-52 145 -38 107 -67 127 -142 98z m109 -104 c-6 -6 -10 -2 -11 12 -2 16 1 18
10 9 7 -7 8 -14 1 -21z m-47 -57 c-9 -9 -20 -13 -24 -9 -4 4 -1 11 7 16 25 16
35 11 17 -7z"/>
<path d="M1720 1124 c0 -8 5 -12 10 -9 6 4 8 11 5 16 -9 14 -15 11 -15 -7z"/>
<path d="M2606 1096 c3 -9 11 -16 16 -16 13 0 5 23 -10 28 -7 2 -10 -2 -6 -12z"/>
<path d="M1350 1025 c-8 -9 -8 -15 -2 -15 18 0 42 12 42 21 0 14 -26 10 -40
-6z"/>
<path d="M1900 1020 c-16 -12 -21 -22 -15 -28 10 -10 107 -44 111 -39 1 1 5
17 9 35 6 30 5 33 -12 30 -10 -3 -29 1 -43 8 -22 10 -29 10 -50 -6z"/>
<path d="M2020 970 c0 -5 5 -10 10 -10 6 0 10 5 10 10 0 6 -4 10 -10 10 -5 0
-10 -4 -10 -10z"/>
<path d="M2110 965 c0 -8 7 -15 16 -15 14 0 14 3 4 15 -7 8 -14 15 -16 15 -2
0 -4 -7 -4 -15z"/>
<path d="M1395 960 c-3 -5 -1 -10 4 -10 6 0 11 5 11 10 0 6 -2 10 -4 10 -3 0
-8 -4 -11 -10z"/>
<path d="M1855 931 c-2 -5 7 -13 22 -20 27 -12 39 -9 29 7 -8 13 -45 22 -51
13z"/>
<path d="M1400 889 c0 -24 17 -42 33 -36 8 3 20 0 26 -6 8 -8 9 -4 6 13 -5 28
-4 27 -38 35 -19 5 -27 3 -27 -6z"/>
<path d="M1500 880 c0 -5 5 -10 10 -10 6 0 10 5 10 10 0 6 -4 10 -10 10 -5 0
-10 -4 -10 -10z"/>
<path d="M1535 880 c3 -5 10 -10 16 -10 5 0 9 5 9 10 0 6 -7 10 -16 10 -8 0
-12 -4 -9 -10z"/>
<path d="M1759 805 c-16 -35 -29 -69 -29 -75 0 -6 -9 -30 -20 -53 -12 -23 -23
-58 -26 -77 -3 -22 -15 -42 -31 -55 -14 -11 -38 -30 -52 -42 l-26 -22 107
-104 c153 -149 318 -241 318 -177 0 18 -4 20 -35 14 -28 -5 -35 -3 -35 9 0 10
11 17 33 19 43 4 45 33 2 33 -47 0 -38 27 10 32 54 5 65 10 65 29 0 13 -7 15
-42 8 -64 -10 -70 -10 -75 3 -3 7 10 15 31 19 47 8 50 37 4 33 -53 -5 -49 18
5 35 27 9 20 26 -12 26 -16 0 -31 6 -34 14 -7 18 1 26 26 26 17 0 18 5 12 43
-9 51 -12 57 -31 57 -19 0 -18 17 2 28 19 10 11 32 -12 32 -19 0 -18 26 1 34
15 6 21 57 8 70 -4 4 -6 22 -5 41 3 32 2 34 -51 49 -30 9 -60 16 -67 16 -6 0
-24 -29 -41 -65z"/>
<path d="M1276 845 c4 -9 15 -20 25 -26 11 -5 17 -14 14 -19 -3 -5 -1 -18 4
-29 9 -17 16 -65 20 -141 1 -14 8 -33 16 -43 13 -18 14 -18 34 2 12 12 30 21
42 21 16 0 19 4 14 18 -4 9 -10 30 -13 46 -3 20 -14 32 -37 42 -34 14 -62 62
-51 89 4 10 -5 22 -27 35 -39 24 -48 25 -41 5z"/>
<path d="M2900 828 c0 -18 26 -48 42 -48 6 0 7 13 3 32 -7 30 -6 31 9 15 19
-19 36 -22 36 -7 0 14 -32 28 -63 27 -18 -1 -27 -8 -27 -19z"/>
<path d="M3799 796 c-30 -13 -84 -39 -120 -59 -64 -36 -173 -81 -239 -99 -70
-19 -165 -42 -255 -63 -38 -9 -86 -20 -105 -25 -19 -5 -68 -17 -109 -27 -41
-11 -77 -25 -79 -33 -4 -10 4 -12 34 -7 67 11 206 43 289 67 61 17 180 47 215
53 51 10 88 24 200 76 69 32 149 69 178 81 35 16 52 29 52 42 0 10 -1 18 -2
17 -2 0 -28 -11 -59 -23z"/>
<path d="M1531 741 c-34 -9 -39 -31 -8 -31 25 0 55 24 40 33 -4 2 -19 1 -32
-2z"/>
<path d="M704 555 c-19 -14 -19 -14 2 -15 12 0 27 7 34 15 17 20 -9 21 -36 0z"/>
<path d="M815 450 c3 -5 8 -10 11 -10 2 0 4 5 4 10 0 6 -5 10 -11 10 -5 0 -7
-4 -4 -10z"/>
<path d="M705 440 c-3 -5 -1 -10 4 -10 6 0 11 5 11 10 0 6 -2 10 -4 10 -3 0
-8 -4 -11 -10z"/>
<path d="M3845 442 c-6 -5 -28 -15 -50 -22 -22 -7 -74 -30 -115 -53 -41 -22
-91 -44 -110 -48 -19 -4 -53 -13 -75 -19 -56 -16 -115 -30 -148 -35 -15 -3
-36 -9 -46 -14 -10 -6 -21 -8 -24 -4 -3 3 -21 -4 -40 -15 -24 -14 -39 -17 -50
-10 -14 7 -17 4 -17 -16 0 -17 7 -27 23 -31 12 -4 36 -18 54 -31 17 -13 36
-24 41 -24 6 0 12 -7 16 -15 3 -8 12 -15 21 -15 8 0 15 -4 15 -10 0 -5 6 -10
14 -10 8 0 17 -7 20 -16 4 -9 13 -14 21 -10 9 3 15 -1 15 -10 0 -11 6 -15 20
-11 13 3 20 0 20 -9 0 -9 11 -14 32 -14 l32 0 -40 30 c-21 16 -45 30 -51 30
-7 0 -13 5 -13 10 0 6 -5 10 -11 10 -6 0 -33 16 -59 35 -26 19 -52 35 -56 35
-5 0 -22 11 -39 24 l-29 23 33 17 c18 10 35 15 38 12 3 -2 17 0 32 6 14 5 35
12 46 14 24 4 122 28 216 52 20 5 74 30 120 54 46 25 95 48 109 52 35 8 53 22
49 35 -3 7 -8 8 -14 3z"/>
<path d="M2830 416 c0 -9 5 -16 10 -16 9 0 116 -66 130 -80 6 -6 46 -29 82
-48 16 -7 41 -27 57 -43 30 -29 30 -29 41 -8 14 24 17 21 -40 47 -45 22 -51
25 -127 75 -23 15 -45 27 -49 27 -4 0 -22 11 -41 26 -18 14 -33 22 -33 18 0
-3 -7 -1 -15 6 -12 10 -15 10 -15 -4z"/>
<path d="M740 410 c0 -5 5 -10 10 -10 6 0 10 5 10 10 0 6 -4 10 -10 10 -5 0
-10 -4 -10 -10z"/>
<path d="M815 410 c-3 -5 -1 -10 4 -10 6 0 11 5 11 10 0 6 -2 10 -4 10 -3 0
-8 -4 -11 -10z"/>
<path d="M710 389 c0 -5 5 -7 10 -4 6 3 10 8 10 11 0 2 -4 4 -10 4 -5 0 -10
-5 -10 -11z"/>
<path d="M780 390 c0 -5 5 -10 11 -10 5 0 7 5 4 10 -3 6 -8 10 -11 10 -2 0 -4
-4 -4 -10z"/>
<path d="M600 380 c0 -5 5 -10 10 -10 6 0 10 5 10 10 0 6 -4 10 -10 10 -5 0
-10 -4 -10 -10z"/>
<path d="M850 380 c0 -5 5 -10 10 -10 6 0 10 5 10 10 0 6 -4 10 -10 10 -5 0
-10 -4 -10 -10z"/>
<path d="M670 370 c0 -5 5 -10 10 -10 6 0 10 5 10 10 0 6 -4 10 -10 10 -5 0
-10 -4 -10 -10z"/>
<path d="M745 370 c-3 -5 -1 -10 4 -10 6 0 11 5 11 10 0 6 -2 10 -4 10 -3 0
-8 -4 -11 -10z"/>
<path d="M640 349 c0 -5 5 -7 10 -4 6 3 10 8 10 11 0 2 -4 4 -10 4 -5 0 -10
-5 -10 -11z"/>
<path d="M710 350 c0 -5 5 -10 11 -10 5 0 7 5 4 10 -3 6 -8 10 -11 10 -2 0 -4
-4 -4 -10z"/>
<path d="M530 340 c0 -5 5 -10 10 -10 6 0 10 5 10 10 0 6 -4 10 -10 10 -5 0
-10 -4 -10 -10z"/>
<path d="M600 330 c0 -5 5 -10 10 -10 6 0 10 5 10 10 0 6 -4 10 -10 10 -5 0
-10 -4 -10 -10z"/>
<path d="M675 330 c-3 -5 -1 -10 4 -10 6 0 11 5 11 10 0 6 -2 10 -4 10 -3 0
-8 -4 -11 -10z"/>
<path d="M570 309 c0 -5 5 -7 10 -4 6 3 10 8 10 11 0 2 -4 4 -10 4 -5 0 -10
-5 -10 -11z"/>
<path d="M640 310 c0 -5 5 -10 10 -10 6 0 10 5 10 10 0 6 -4 10 -10 10 -5 0
-10 -4 -10 -10z"/>
<path d="M460 300 c0 -5 5 -10 10 -10 6 0 10 5 10 10 0 6 -4 10 -10 10 -5 0
-10 -4 -10 -10z"/>
<path d="M530 290 c0 -5 5 -10 10 -10 6 0 10 5 10 10 0 6 -4 10 -10 10 -5 0
-10 -4 -10 -10z"/>
<path d="M605 290 c-3 -5 -1 -10 4 -10 6 0 11 5 11 10 0 6 -2 10 -4 10 -3 0
-8 -4 -11 -10z"/>
<path d="M500 274 c0 -8 5 -12 10 -9 6 4 8 11 5 16 -9 14 -15 11 -15 -7z"/>
<path d="M570 270 c0 -5 5 -10 10 -10 6 0 10 5 10 10 0 6 -4 10 -10 10 -5 0
-10 -4 -10 -10z"/>
<path d="M390 260 c0 -5 5 -10 10 -10 6 0 10 5 10 10 0 6 -4 10 -10 10 -5 0
-10 -4 -10 -10z"/>
<path d="M465 261 c-3 -5 -1 -12 5 -16 5 -3 10 1 10 9 0 18 -6 21 -15 7z"/>
<path d="M640 260 c0 -5 5 -10 10 -10 6 0 10 5 10 10 0 6 -4 10 -10 10 -5 0
-10 -4 -10 -10z"/>
<path d="M530 250 c0 -5 5 -10 10 -10 6 0 10 5 10 10 0 6 -4 10 -10 10 -5 0
-10 -4 -10 -10z"/>
<path d="M430 234 c0 -8 5 -12 10 -9 6 4 8 11 5 16 -9 14 -15 11 -15 -7z"/>
<path d="M605 240 c4 -6 11 -8 16 -5 14 9 11 15 -7 15 -8 0 -12 -5 -9 -10z"/>
<path d="M500 230 c0 -5 5 -10 10 -10 6 0 10 5 10 10 0 6 -4 10 -10 10 -5 0
-10 -4 -10 -10z"/>
<path d="M395 220 c-3 -5 -1 -10 4 -10 6 0 11 5 11 10 0 6 -2 10 -4 10 -3 0
-8 -4 -11 -10z"/>
<path d="M570 220 c0 -5 5 -10 10 -10 6 0 10 5 10 10 0 6 -4 10 -10 10 -5 0
-10 -4 -10 -10z"/>
<path d="M640 220 c0 -5 5 -10 10 -10 6 0 10 5 10 10 0 6 -4 10 -10 10 -5 0
-10 -4 -10 -10z"/>
<path d="M460 210 c0 -5 5 -10 10 -10 6 0 10 5 10 10 0 6 -4 10 -10 10 -5 0
-10 -4 -10 -10z"/>
<path d="M536 211 c-4 -5 -2 -12 3 -15 5 -4 12 -2 15 3 4 5 2 12 -3 15 -5 4
-12 2 -15 -3z"/>
<path d="M360 194 c0 -8 5 -12 10 -9 6 4 8 11 5 16 -9 14 -15 11 -15 -7z"/>
<path d="M610 200 c0 -5 5 -10 10 -10 6 0 10 5 10 10 0 6 -4 10 -10 10 -5 0
-10 -4 -10 -10z"/>
<path d="M430 190 c0 -5 5 -10 10 -10 6 0 10 5 10 10 0 6 -4 10 -10 10 -5 0
-10 -4 -10 -10z"/>
<path d="M506 191 c-4 -7 -5 -15 -2 -18 9 -9 19 4 14 18 -4 11 -6 11 -12 0z"/>
<path d="M680 189 c0 -5 5 -7 10 -4 6 3 10 8 10 11 0 2 -4 4 -10 4 -5 0 -10
-5 -10 -11z"/>
<path d="M570 180 c0 -5 5 -10 10 -10 6 0 10 5 10 10 0 6 -4 10 -10 10 -5 0
-10 -4 -10 -10z"/>
<path d="M2567 173 c-10 -39 -5 -69 14 -93 l21 -25 -8 30 c-4 17 -7 47 -8 67
-1 40 -12 51 -19 21z"/>
<path d="M390 170 c0 -5 5 -10 10 -10 6 0 10 5 10 10 0 6 -4 10 -10 10 -5 0
-10 -4 -10 -10z"/>
<path d="M466 171 c-4 -5 -2 -12 3 -15 5 -4 12 -2 15 3 4 5 2 12 -3 15 -5 4
-12 2 -15 -3z"/>
<path d="M645 170 c4 -6 11 -8 16 -5 14 9 11 15 -7 15 -8 0 -12 -5 -9 -10z"/>
<path d="M540 160 c0 -5 5 -10 10 -10 6 0 10 5 10 10 0 6 -4 10 -10 10 -5 0
-10 -4 -10 -10z"/>
<path d="M360 150 c0 -5 5 -10 10 -10 6 0 10 5 10 10 0 6 -4 10 -10 10 -5 0
-10 -4 -10 -10z"/>
<path d="M435 151 c-3 -5 -1 -12 5 -16 5 -3 10 1 10 9 0 18 -6 21 -15 7z"/>
<path d="M610 150 c0 -5 5 -10 10 -10 6 0 10 5 10 10 0 6 -4 10 -10 10 -5 0
-10 -4 -10 -10z"/>
<path d="M685 150 c-3 -5 -1 -10 4 -10 6 0 11 5 11 10 0 6 -2 10 -4 10 -3 0
-8 -4 -11 -10z"/>
<path d="M500 140 c0 -5 5 -10 10 -10 6 0 10 5 10 10 0 6 -4 10 -10 10 -5 0
-10 -4 -10 -10z"/>
<path d="M576 141 c-4 -5 -2 -12 3 -15 5 -4 12 -2 15 3 4 5 2 12 -3 15 -5 4
-12 2 -15 -3z"/>
<path d="M396 131 c-4 -5 -2 -12 3 -15 5 -4 12 -2 15 3 4 5 2 12 -3 15 -5 4
-12 2 -15 -3z"/>
<path d="M650 130 c0 -5 5 -10 11 -10 5 0 7 5 4 10 -3 6 -8 10 -11 10 -2 0 -4
-4 -4 -10z"/>
<path d="M3190 130 c0 -5 5 -10 10 -10 6 0 10 5 10 10 0 6 -4 10 -10 10 -5 0
-10 -4 -10 -10z"/>
<path d="M470 120 c0 -5 5 -10 10 -10 6 0 10 5 10 10 0 6 -4 10 -10 10 -5 0
-10 -4 -10 -10z"/>
<path d="M546 121 c-4 -7 -5 -15 -2 -18 9 -9 19 4 14 18 -4 11 -6 11 -12 0z"/>
<path d="M360 110 c0 -5 5 -10 10 -10 6 0 10 5 10 10 0 6 -4 10 -10 10 -5 0
-10 -4 -10 -10z"/>
<path d="M610 110 c0 -5 5 -10 10 -10 6 0 10 5 10 10 0 6 -4 10 -10 10 -5 0
-10 -4 -10 -10z"/>
<path d="M1770 85 c-6 -20 -23 -43 -36 -52 -13 -8 -24 -19 -24 -24 0 -5 42 -9
94 -9 94 0 106 5 106 40 0 6 -86 62 -122 78 -3 2 -11 -13 -18 -33z"/>
<path d="M3230 110 c0 -5 5 -10 10 -10 6 0 10 5 10 10 0 6 -4 10 -10 10 -5 0
-10 -4 -10 -10z"/>
<path d="M430 100 c0 -5 5 -10 10 -10 6 0 10 5 10 10 0 6 -4 10 -10 10 -5 0
-10 -4 -10 -10z"/>
<path d="M506 101 c-4 -5 -2 -12 3 -15 5 -4 12 -2 15 3 4 5 2 12 -3 15 -5 4
-12 2 -15 -3z"/>
<path d="M330 90 c0 -5 5 -10 11 -10 5 0 7 5 4 10 -3 6 -8 10 -11 10 -2 0 -4
-4 -4 -10z"/>
<path d="M580 90 c0 -5 5 -10 10 -10 6 0 10 5 10 10 0 6 -4 10 -10 10 -5 0
-10 -4 -10 -10z"/>
<path d="M3190 90 c0 -5 5 -10 10 -10 6 0 10 5 10 10 0 6 -4 10 -10 10 -5 0
-10 -4 -10 -10z"/>
<path d="M400 80 c0 -5 5 -10 10 -10 6 0 10 5 10 10 0 6 -4 10 -10 10 -5 0
-10 -4 -10 -10z"/>
<path d="M470 80 c0 -5 5 -10 10 -10 6 0 10 5 10 10 0 6 -4 10 -10 10 -5 0
-10 -4 -10 -10z"/>
<path d="M3265 80 c4 -6 11 -8 16 -5 14 9 11 15 -7 15 -8 0 -12 -5 -9 -10z"/>
<path d="M540 70 c0 -5 5 -10 10 -10 6 0 10 5 10 10 0 6 -4 10 -10 10 -5 0
-10 -4 -10 -10z"/>
<path d="M615 71 c-3 -5 -1 -12 5 -16 5 -3 10 1 10 9 0 18 -6 21 -15 7z"/>
<path d="M3160 70 c0 -5 5 -10 10 -10 6 0 10 5 10 10 0 6 -4 10 -10 10 -5 0
-10 -4 -10 -10z"/>
<path d="M360 60 c0 -5 5 -10 10 -10 6 0 10 5 10 10 0 6 -4 10 -10 10 -5 0
-10 -4 -10 -10z"/>
<path d="M436 61 c-4 -5 -2 -12 3 -15 5 -4 12 -2 15 3 4 5 2 12 -3 15 -5 4
-12 2 -15 -3z"/>
<path d="M3230 60 c0 -5 5 -10 10 -10 6 0 10 5 10 10 0 6 -4 10 -10 10 -5 0
-10 -4 -10 -10z"/>
<path d="M3300 60 c0 -5 5 -10 10 -10 6 0 10 5 10 10 0 6 -4 10 -10 10 -5 0
-10 -4 -10 -10z"/>
<path d="M510 50 c0 -5 5 -10 10 -10 6 0 10 5 10 10 0 6 -4 10 -10 10 -5 0
-10 -4 -10 -10z"/>
<path d="M580 44 c0 -8 5 -12 10 -9 6 4 8 11 5 16 -9 14 -15 11 -15 -7z"/>
<path d="M3196 51 c-4 -5 -2 -12 3 -15 5 -4 12 -2 15 3 4 5 2 12 -3 15 -5 4
-12 2 -15 -3z"/>
<path d="M330 40 c0 -5 5 -10 10 -10 6 0 10 5 10 10 0 6 -4 10 -10 10 -5 0
-10 -4 -10 -10z"/>
<path d="M400 40 c0 -5 5 -10 10 -10 6 0 10 5 10 10 0 6 -4 10 -10 10 -5 0
-10 -4 -10 -10z"/>
<path d="M650 40 c0 -5 5 -10 10 -10 6 0 10 5 10 10 0 6 -4 10 -10 10 -5 0
-10 -4 -10 -10z"/>
<path d="M2580 35 c0 -8 5 -15 10 -15 6 0 10 7 10 15 0 8 -4 15 -10 15 -5 0
-10 -7 -10 -15z"/>
<path d="M3270 40 c0 -5 5 -10 10 -10 6 0 10 5 10 10 0 6 -4 10 -10 10 -5 0
-10 -4 -10 -10z"/>
<path d="M470 30 c0 -5 5 -10 10 -10 6 0 10 5 10 10 0 6 -4 10 -10 10 -5 0
-10 -4 -10 -10z"/>
<path d="M546 31 c-4 -5 -2 -12 3 -15 5 -4 12 -2 15 3 4 5 2 12 -3 15 -5 4
-12 2 -15 -3z"/>
<path d="M3166 31 c-4 -7 -5 -15 -2 -18 9 -9 19 4 14 18 -4 11 -6 11 -12 0z"/>
<path d="M3340 30 c0 -5 5 -10 10 -10 6 0 10 5 10 10 0 6 -4 10 -10 10 -5 0
-10 -4 -10 -10z"/>
<path d="M366 21 c-4 -5 -2 -12 3 -15 5 -4 12 -2 15 3 4 5 2 12 -3 15 -5 4
-12 2 -15 -3z"/>
<path d="M620 20 c0 -5 5 -10 11 -10 5 0 7 5 4 10 -3 6 -8 10 -11 10 -2 0 -4
-4 -4 -10z"/>
<path d="M3230 20 c0 -5 5 -10 10 -10 6 0 10 5 10 10 0 6 -4 10 -10 10 -5 0
-10 -4 -10 -10z"/>
<path d="M440 10 c0 -5 5 -10 10 -10 6 0 10 5 10 10 0 6 -4 10 -10 10 -5 0
-10 -4 -10 -10z"/>
<path d="M510 10 c0 -5 5 -10 10 -10 6 0 10 5 10 10 0 6 -4 10 -10 10 -5 0
-10 -4 -10 -10z"/>
<path d="M3305 10 c4 -6 11 -8 16 -5 14 9 11 15 -7 15 -8 0 -12 -5 -9 -10z"/>
<path d="M3380 10 c0 -5 5 -10 11 -10 5 0 7 5 4 10 -3 6 -8 10 -11 10 -2 0 -4
-4 -4 -10z"/>
</g>
</svg>
